<svg width="63" height="63" viewBox="0 0 63 63" fill="none" xmlns="http://www.w3.org/2000/svg">
<path d="M31.45 48.9343C21.8363 48.9343 14.0156 41.1124 14.0156 31.4999C14.0156 21.8874 21.8363 14.0655 31.45 14.0655C41.0638 14.0655 48.8844 21.8874 48.8844 31.4999C48.8844 41.1124 41.0625 48.9343 31.45 48.9343ZM31.45 15.3241C22.5307 15.3241 15.2755 22.5806 15.2755 31.4999C15.2755 40.4192 22.532 47.6757 31.45 47.6757C40.3681 47.6757 47.6258 40.4192 47.6258 31.4999C47.6258 22.5806 40.3694 15.3241 31.45 15.3241Z" fill="#CDCDCD"/>
<path d="M48.1446 28.7892L47.7106 28.4941C47.3064 28.2188 46.9753 27.9262 46.7335 27.6868C46.9629 27.4339 47.4056 27.0234 47.7181 26.7531L48.1149 26.4097L47.6251 26.2224C47.0633 26.0079 46.6008 25.7388 46.328 25.5615L46.3367 25.533C46.3962 25.3246 46.8426 24.6203 47.1402 24.1851L47.4366 23.7523L46.9145 23.6953C46.4805 23.6482 46.0899 23.5589 45.7899 23.4746C46.0651 23.1435 46.3652 22.8174 46.3702 22.8137L46.7261 22.428L46.2189 22.2966C45.5964 22.1354 45.0818 21.8998 44.7941 21.7522C44.9987 21.3095 45.3125 20.7528 45.3162 20.7466L45.5729 20.289L45.0483 20.2778C44.7111 20.2704 44.3973 20.2369 44.1283 20.1948C44.8177 19.5177 45.2802 18.9647 45.5071 18.5505C46.1271 17.4172 47.7007 14.9074 47.9549 14.5032C48.0702 14.363 48.2252 14.0506 47.9648 13.5149C47.8098 13.195 47.537 12.8626 47.1948 12.5787C46.7137 12.1782 46.1767 11.9388 45.7589 11.9388C45.5753 11.9388 45.4141 11.986 45.2876 12.0752C44.9752 12.1906 44.3155 12.5303 43.8641 13.4318C43.6546 13.8522 43.4735 14.3494 43.2813 14.8764C42.985 15.6899 42.6787 16.5318 42.2707 17.0414C42.024 17.349 41.5044 17.8202 40.758 18.4117C40.6761 18.0955 40.5844 17.4469 40.5372 17.0092L40.4802 16.4872L40.0474 16.7835C39.6171 17.0787 39.1968 17.287 38.8868 17.4221C38.764 16.9708 38.6549 16.4363 38.6536 16.4301L38.5495 15.9155L38.1453 16.2503C37.7894 16.5454 37.4347 16.7736 37.1483 16.936C36.9425 16.5913 36.6709 16.0321 36.5618 15.8002L36.3398 15.324L36.0249 15.7444C35.757 16.1015 35.4768 16.3966 35.2412 16.6198C34.951 16.2466 34.6373 15.7804 34.6336 15.7754L34.341 15.3402L34.0954 15.8039C33.8437 16.2801 33.5585 16.6707 33.349 16.9311C33.0861 16.7252 32.6297 16.2863 32.3309 15.98L31.9651 15.6043L31.8064 16.104C31.6464 16.6099 31.4393 17.0402 31.2806 17.3304C30.9942 17.1766 30.4523 16.7997 30.0976 16.5355L29.6773 16.2218L29.5992 16.7414C29.5136 17.313 29.3586 17.8078 29.2433 18.119C28.9432 17.9429 28.4757 17.6156 28.1583 17.38L27.738 17.0662L27.6611 17.5846C27.5631 18.2368 27.3783 18.7812 27.2618 19.0775C26.9505 18.956 26.3863 18.6683 26.0106 18.46L25.5518 18.2058L25.5444 18.7303C25.5369 19.3057 25.4502 19.8141 25.3795 20.1377C25.0844 20.0658 24.4284 19.8054 24.0018 19.6194L23.5207 19.4098L23.5629 19.9331C23.61 20.5196 23.569 21.0392 23.5269 21.3703C23.1722 21.3182 22.5746 21.1731 22.2125 21.0752L21.7066 20.9375L21.8244 21.4484C21.9323 21.9134 21.9757 22.3474 21.9918 22.671C21.5975 22.5991 21.073 22.4652 20.8535 22.4057L20.3475 22.268L20.4653 22.7789C20.5993 23.3568 20.634 23.8862 20.6402 24.2124C20.1591 24.1231 19.5304 23.9532 19.523 23.9507L19.017 23.8131L19.1348 24.324C19.2452 24.8001 19.2886 25.2403 19.3035 25.5788C19.1559 25.5925 18.9154 25.6049 18.5272 25.6049C18.2098 25.6049 17.9494 25.5962 17.9469 25.5962L17.4224 25.5788L17.6555 26.0488C17.9221 26.5857 18.0784 27.0978 18.159 27.4153L18.1341 27.4302C17.9481 27.5418 17.1421 27.7563 16.6288 27.8741L16.1166 27.9907L16.4614 28.3862C16.7478 28.716 16.9735 29.0459 17.1372 29.3125C16.7106 29.3683 16.2679 29.403 16.2617 29.4042L15.7385 29.4452L16.0224 29.8866C16.3225 30.3541 16.5246 30.8055 16.6486 31.1217C16.3386 31.2655 15.7682 31.4688 15.3726 31.5966L14.873 31.7578L15.2511 32.1223C15.576 32.4348 15.8364 32.7547 16.0236 33.0089C15.8265 33.2036 15.2065 33.6302 14.7948 33.8918L14.3521 34.1733L14.8097 34.43C15.2189 34.6606 15.5636 34.9148 15.8141 35.1194C15.5128 35.2806 14.9573 35.5162 14.5716 35.665L14.0818 35.8547L14.4799 36.197C14.8506 36.5156 15.147 36.8442 15.3603 37.1084C15.1036 37.334 14.6175 37.6912 14.2765 37.9255L13.8438 38.2231L14.31 38.4637C14.8432 38.739 15.2722 39.0589 15.5252 39.266L15.514 39.2932C15.4309 39.4941 14.9089 40.1439 14.5642 40.5419L14.2207 40.9387L14.7328 41.054C15.1594 41.1495 15.5376 41.2822 15.8265 41.3988C15.5165 41.6964 15.1805 41.9865 15.1767 41.9915L14.78 42.335L15.2697 42.5222C15.7893 42.7218 16.2208 42.9661 16.506 43.1459C16.3411 43.4448 16.0026 43.9482 15.7595 44.2842L15.4533 44.7096L15.9728 44.779C16.5358 44.8546 17.0219 44.9972 17.343 45.1088C17.281 45.4114 17.0516 46.0698 16.8855 46.4989L16.6957 46.9887L17.2165 46.9242C17.627 46.8734 18.0722 46.8622 18.5012 46.8882L18.5049 46.9006C18.5644 47.109 18.5619 47.9435 18.5421 48.4692L18.521 48.9938L18.9935 48.7644C19.3692 48.5821 19.7313 48.4531 20.0165 48.3663L20.0202 48.3738C20.1268 48.5622 20.3166 49.3744 20.4182 49.8915L20.5186 50.4061L20.9254 50.0738C21.1362 49.9014 21.3668 49.7365 21.6099 49.584C21.7835 49.8146 22.1245 50.4644 22.3315 50.8959L22.5597 51.3684L22.8685 50.9443C22.9553 50.824 23.0495 50.705 23.1487 50.5859C23.3347 50.8823 23.5914 51.3622 23.7613 51.7044L23.9944 52.1744L24.2982 51.7466C24.5338 51.4155 24.783 51.134 24.9926 50.9195C25.1612 51.1067 25.553 51.7912 25.7886 52.2388L26.033 52.7026L26.3268 52.2686C26.5773 51.8991 26.8451 51.5891 27.0596 51.3634C27.2766 51.7292 27.4775 52.1111 27.48 52.1161L27.7243 52.5811L28.0182 52.1471C28.3307 51.6858 28.6655 51.32 28.9097 51.0807C29.2098 51.3473 29.6426 51.8061 29.8162 51.9958L30.1696 52.3827L30.3444 51.8879C30.5068 51.4291 30.7065 51.0348 30.8665 50.7546C31.1827 51.0026 31.5869 51.3671 31.7531 51.5209L32.1375 51.878L32.2714 51.3708C32.3222 51.1799 32.3817 50.9864 32.4524 50.793L32.5355 50.8897L32.7252 50.4024C32.7302 50.3888 32.7351 50.3764 32.7413 50.3627C33.1171 50.6603 33.561 51.067 33.566 51.072L33.9528 51.4266L34.083 50.9182C34.212 50.4173 34.3868 49.987 34.5306 49.6832C34.672 49.7737 34.7663 49.8357 34.7675 49.837L35.204 50.1271L35.2065 50.1073C35.3652 50.2511 35.478 50.3578 35.4793 50.359L35.8612 50.7198L35.9988 50.2139C36.165 49.6014 36.4018 49.0967 36.5568 48.8028C36.7949 48.8549 37.5178 49.1996 37.9692 49.4364L38.4342 49.6795L38.4292 49.155C38.4218 48.4767 38.5272 47.8877 38.5954 47.5826C38.9922 47.6397 39.6084 47.7848 39.8626 47.8492L40.3711 47.9782L40.2446 47.4686C40.1181 46.9564 40.0697 46.4815 40.0524 46.1591H40.0549C40.2607 46.0884 41.094 46.0525 41.6197 46.0475L42.1443 46.0438L41.8938 45.5825C41.7313 45.2849 41.5875 44.9625 41.4647 44.6252L41.435 44.5298C41.4127 44.4578 41.3916 44.3859 41.3717 44.3115C41.7723 44.3388 42.4567 44.4591 42.7146 44.5087L43.2305 44.6079L43.0743 44.1069C42.9031 43.5564 42.8287 43.0492 42.7965 42.7181C43.2702 42.6648 43.8443 42.64 43.8517 42.64L44.3763 42.6177L44.1096 42.1663C43.9584 41.9096 43.8208 41.6356 43.6992 41.3479C44.0142 41.209 44.5747 41.0181 44.9628 40.899L45.465 40.7453L45.093 40.3758C44.7904 40.0757 44.5449 39.7694 44.3639 39.5226C44.8103 39.4259 45.3162 39.3478 45.3236 39.3466L45.842 39.266L45.527 38.8468C45.1934 38.4029 44.9578 37.9677 44.8115 37.6614C45.1091 37.4952 45.6646 37.2497 46.049 37.0935L46.5351 36.8963L46.1321 36.5615C45.8072 36.2912 45.5369 36.0122 45.3298 35.7741C45.6386 35.6675 46.276 35.5224 46.7075 35.4393L47.2233 35.3401L46.8922 34.9334C46.5463 34.5081 46.2958 34.0852 46.1408 33.7926C46.4024 33.6004 46.9753 33.2743 47.3671 33.0672L47.8309 32.8229L47.3956 32.529C47.0484 32.2947 46.7546 32.0454 46.5351 31.8408C46.7013 31.63 47.2803 31.1278 47.6647 30.8178L48.0727 30.488L47.5891 30.2834C47.1799 30.1098 46.8265 29.9102 46.5537 29.7353L46.7744 29.5568L46.7633 29.5518C47.0485 29.377 47.4143 29.1736 47.6895 29.0298L48.1545 28.7867L48.1446 28.7892Z" fill="#CBCBCB"/>
<path d="M45.3726 9.45764C45.3726 9.45764 44.5009 9.63993 43.9528 10.7348C43.4047 11.8298 43.0067 13.5943 42.2764 14.5069C41.546 15.4196 39.0449 17.1841 39.0449 17.1841V19.5562L41.3364 19.4148C41.3364 19.4148 44.3583 17.0018 45.0676 15.7035C45.7769 14.4052 47.658 11.4243 47.658 11.4243L45.3726 9.45764Z" fill="#433709"/>
<path d="M46.2715 10.2363C45.897 10.834 44.5355 13.4281 43.9167 14.5614C43.2074 15.8597 40.1855 18.2728 40.1855 18.2728L38.8066 18.1674V19.3565L41.0982 19.2152C41.0982 19.2152 44.12 16.8021 44.8293 15.5038C45.5386 14.2056 47.4197 11.2246 47.4197 11.2246L46.2727 10.2376L46.2715 10.2363Z" fill="#261C02"/>
<path d="M47.6232 11.4887C47.3764 11.7851 46.6436 11.5842 45.9888 11.0386C45.3329 10.493 45.0031 9.80978 45.2498 9.51218C45.4966 9.21582 46.2294 9.4167 46.8841 9.9623C47.5401 10.5079 47.8699 11.1911 47.6232 11.4887Z" fill="#FCD3B3"/>
<path d="M40.1484 16.0916C40.1484 16.0916 35.2814 12.818 27.1891 16.7835C19.0981 20.7491 15.9944 26.5895 15.3261 32.9779C14.6565 39.3664 15.9895 43.606 20.2216 46.9713C24.4525 50.3367 36.3775 48.3552 39.6226 43.575C43.7964 37.4271 45.9231 30.7273 45.9565 26.9552C45.99 23.1832 44.4065 20.32 43.4951 18.9808C42.585 17.6429 41.3053 16.6521 41.3053 16.6521L40.1496 16.0916H40.1484Z" fill="#4B5B19"/>
<path d="M37.9862 13.7406C37.9862 13.7406 38.2553 15.0686 38.4425 15.3948L38.6285 15.7209L37.355 16.4165C37.355 16.4165 37.0624 15.2249 37.0897 15.2112C37.117 15.1976 37.985 13.7406 37.985 13.7406H37.9862Z" fill="#6B7B3E"/>
<path d="M37.986 13.7406C37.1527 14.4313 36.3281 14.7772 36.3281 14.7772L37.3548 16.4178L37.986 13.7418V13.7406Z" fill="#4B5B19"/>
<path d="M35.8598 13.1652C35.8598 13.1652 36.4314 14.3941 36.6893 14.6681L36.9472 14.9421L35.8709 15.9155C35.8709 15.9155 35.3092 14.8243 35.3328 14.8045C35.3563 14.7847 35.861 13.1652 35.861 13.1652H35.8598Z" fill="#6B7B3E"/>
<path d="M35.8604 13.1652C35.2107 14.0307 34.4902 14.5602 34.4902 14.5602L35.8716 15.9155L35.8604 13.1652Z" fill="#4B5B19"/>
<path d="M33.9013 13.1826C33.9013 13.1826 34.6589 14.3072 34.9553 14.5366L35.2528 14.7673L34.3427 15.8969C34.3427 15.8969 33.6173 14.9074 33.6371 14.8838C33.657 14.8603 33.9025 13.1826 33.9025 13.1826H33.9013Z" fill="#6B7B3E"/>
<path d="M33.9015 13.1826C33.3956 14.1398 32.7656 14.7747 32.7656 14.7747L34.3417 15.8969L33.9002 13.1826H33.9015Z" fill="#4B5B19"/>
<path d="M27.3164 14.9111C27.3164 14.9111 28.4039 15.7209 28.7598 15.8399L29.1169 15.9589L28.6333 17.3267C28.6333 17.3267 27.6202 16.6335 27.6314 16.605C27.6425 16.5765 27.3176 14.9124 27.3176 14.9124L27.3164 14.9111Z" fill="#6B7B3E"/>
<path d="M27.3165 14.9111C27.1566 15.9813 26.7734 16.7897 26.7734 16.7897L28.6334 17.3254L27.3178 14.9111H27.3165Z" fill="#4B5B19"/>
<path d="M29.3125 14.0432C29.3125 14.0432 30.4 14.8529 30.7558 14.9719L31.113 15.091L30.6294 16.4587C30.6294 16.4587 29.6163 15.7655 29.6275 15.737C29.6386 15.7085 29.3137 14.0444 29.3137 14.0444L29.3125 14.0432Z" fill="#6B7B3E"/>
<path d="M29.3127 14.0432C29.1527 15.1133 28.7695 15.9218 28.7695 15.9218L30.6295 16.4574L29.3139 14.0432H29.3127Z" fill="#4B5B19"/>
<path d="M31.5703 13.438C31.5703 13.438 32.5164 14.4089 32.85 14.5825L33.1836 14.7561L32.4904 16.0308C32.4904 16.0308 31.5988 15.1864 31.6149 15.1603C31.6311 15.1343 31.5716 13.4392 31.5716 13.4392L31.5703 13.438Z" fill="#6B7B3E"/>
<path d="M31.5696 13.438C31.2435 14.4697 30.7363 15.2075 30.7363 15.2075L32.4884 16.0296L31.5696 13.438Z" fill="#4B5B19"/>
<path d="M39.9192 14.3073C39.9192 14.3073 40.0655 15.6552 40.2217 15.9962L40.3779 16.3384L39.0462 16.9138C39.0462 16.9138 38.8652 15.6998 38.8937 15.6886C38.9222 15.6775 39.9204 14.306 39.9204 14.306L39.9192 14.3073Z" fill="#6B7B3E"/>
<path d="M39.9198 14.3073C39.027 14.9186 38.1738 15.1864 38.1738 15.1864L39.0456 16.9138L39.9198 14.306V14.3073Z" fill="#4B5B19"/>
<path d="M19.9082 20.1353C19.9082 20.1353 21.2164 20.4899 21.5909 20.4701L21.9666 20.4502L22.0174 21.8998C22.0174 21.8998 20.8209 21.6257 20.8209 21.596C20.8209 21.5662 19.9082 20.1353 19.9082 20.1353Z" fill="#6B7B3E"/>
<path d="M19.9082 20.1353C20.1512 21.1893 20.0905 22.0821 20.0905 22.0821L22.0174 21.8998L19.9082 20.1353Z" fill="#4B5B19"/>
<path d="M21.3066 18.7663C21.3066 18.7663 22.6148 19.1209 22.9893 19.1011L23.3651 19.0812L23.4159 20.5308C23.4159 20.5308 22.2193 20.2568 22.2193 20.227C22.2193 20.1972 21.3066 18.7663 21.3066 18.7663Z" fill="#6B7B3E"/>
<path d="M21.3066 18.7663C21.5497 19.8203 21.4889 20.7131 21.4889 20.7131L23.4159 20.5308L21.3066 18.7663Z" fill="#4B5B19"/>
<path d="M23.1028 17.2535C23.1028 17.2535 24.3453 17.7966 24.7185 17.8313L25.093 17.866L24.9306 19.3082C24.9306 19.3082 23.7873 18.8618 23.791 18.832C23.796 18.8022 23.1016 17.2535 23.1016 17.2535H23.1028Z" fill="#6B7B3E"/>
<path d="M23.1022 17.2535C23.189 18.3323 22.998 19.2065 22.998 19.2065L24.93 19.3082L23.1022 17.2535Z" fill="#4B5B19"/>
<path d="M25.1426 16.047C25.1426 16.047 26.3293 16.703 26.6975 16.7724L27.0671 16.8418L26.772 18.2629C26.772 18.2629 25.6746 17.7123 25.682 17.6826C25.6894 17.6528 25.1426 16.047 25.1426 16.047Z" fill="#6B7B3E"/>
<path d="M25.1426 16.047C25.1277 17.1295 24.8574 17.9814 24.8574 17.9814L26.772 18.2616L25.1426 16.047Z" fill="#4B5B19"/>
<path d="M18.5371 21.725C18.5371 21.725 19.8453 22.0796 20.2198 22.0598L20.5955 22.0399L20.6464 23.4895C20.6464 23.4895 19.4498 23.2155 19.4498 23.1857C19.4498 23.1559 18.5371 21.725 18.5371 21.725Z" fill="#6B7B3E"/>
<path d="M18.5371 21.725C18.7801 22.779 18.7194 23.6718 18.7194 23.6718L20.6464 23.4895L18.5371 21.725Z" fill="#4B5B19"/>
<path d="M16.9902 23.43C16.9902 23.43 18.3443 23.4733 18.7052 23.3667L19.066 23.2601L19.4504 24.6588C19.4504 24.6588 18.2228 24.6687 18.2154 24.6389C18.2079 24.6092 16.9902 23.4287 16.9902 23.4287V23.43Z" fill="#6B7B3E"/>
<path d="M16.9902 23.4299C17.4701 24.3996 17.6177 25.2825 17.6177 25.2825L19.4504 24.66L16.9915 23.4299H16.9902Z" fill="#4B5B19"/>
<path d="M15.7148 25.7649C15.7148 25.7649 17.0367 25.4648 17.3578 25.2701L17.6803 25.0767L18.4057 26.3328C18.4057 26.3328 17.2202 26.6527 17.2066 26.6254C17.1917 26.5981 15.7148 25.7649 15.7148 25.7649Z" fill="#6B7B3E"/>
<path d="M15.7148 25.7648C16.4241 26.582 16.7899 27.3979 16.7899 27.3979L18.4057 26.3328L15.7148 25.7648Z" fill="#4B5B19"/>
<path d="M15.2923 27.3471C15.2923 27.3471 16.6438 27.2405 16.9898 27.0954L17.3358 26.9503L17.8715 28.2982C17.8715 28.2982 16.6525 28.4433 16.6426 28.4147C16.6327 28.3862 15.291 27.3471 15.291 27.3471H15.2923Z" fill="#6B7B3E"/>
<path d="M15.2923 27.3471C15.8763 28.2585 16.1193 29.1191 16.1193 29.1191L17.8715 28.2982L15.291 27.3471H15.2923Z" fill="#4B5B19"/>
<path d="M14.4512 29.5878C14.4512 29.5878 15.7408 29.1724 16.0446 28.9504L16.3484 28.7285L17.1817 29.9164C17.1817 29.9164 16.0297 30.3392 16.0123 30.3132C15.9962 30.2871 14.4512 29.5865 14.4512 29.5865V29.5878Z" fill="#6B7B3E"/>
<path d="M14.4505 29.5878C15.2292 30.3392 15.6644 31.1204 15.6644 31.1204L17.1797 29.9176L14.4492 29.5878H14.4505Z" fill="#4B5B19"/>
<path d="M13.9316 31.914C13.9316 31.914 15.0749 31.1861 15.313 30.8947L15.5511 30.6033L16.6572 31.542C16.6572 31.542 15.649 32.2426 15.6267 32.2215C15.6044 32.2005 13.9329 31.9128 13.9329 31.9128L13.9316 31.914Z" fill="#6B7B3E"/>
<path d="M13.9316 31.914C14.8753 32.4447 15.4941 33.0895 15.4941 33.0895L16.6559 31.542L13.9316 31.9128V31.914Z" fill="#4B5B19"/>
<path d="M13.6438 33.7678C13.6438 33.7678 14.9074 33.278 15.1975 33.04L15.4877 32.8019L16.388 33.9402C16.388 33.9402 15.262 34.4288 15.2434 34.404C15.2248 34.3792 13.6426 33.7691 13.6426 33.7691L13.6438 33.7678Z" fill="#6B7B3E"/>
<path d="M13.6445 33.7678C14.4654 34.4734 14.9453 35.2273 14.9453 35.2273L16.3887 33.9389L13.6445 33.7678Z" fill="#4B5B19"/>
<path d="M13.4062 36.0581C13.4062 36.0581 14.5235 35.2906 14.7504 34.9917L14.9773 34.6929L16.1156 35.5919C16.1156 35.5919 15.1323 36.3272 15.11 36.3074C15.0864 36.2875 13.4062 36.0581 13.4062 36.0581Z" fill="#6B7B3E"/>
<path d="M13.4062 36.0581C14.3672 36.5553 15.0083 37.1791 15.0083 37.1791L16.1156 35.5919L13.4062 36.0581Z" fill="#4B5B19"/>
<path d="M13.7637 38.6944C13.7637 38.6944 14.6503 37.6689 14.7941 37.3217L14.9379 36.9745L16.2673 37.5573C16.2673 37.5573 15.5022 38.517 15.4749 38.5034C15.4476 38.4898 13.7637 38.6931 13.7637 38.6931V38.6944Z" fill="#6B7B3E"/>
<path d="M13.7637 38.6943C14.8202 38.9324 15.5976 39.3726 15.5976 39.3726L16.2673 37.5573L13.7637 38.6943Z" fill="#4B5B19"/>
<path d="M14.3613 40.2195C14.3613 40.2195 15.3868 39.3329 15.579 39.0105L15.7725 38.6881L17.0038 39.4569C17.0038 39.4569 16.1085 40.2964 16.0825 40.279C16.0577 40.2617 14.3613 40.2195 14.3613 40.2195Z" fill="#6B7B3E"/>
<path d="M14.3613 40.2195C15.3719 40.6077 16.0775 41.1557 16.0775 41.1557L17.0025 39.4557L14.3613 40.2183V40.2195Z" fill="#4B5B19"/>
<path d="M15.0117 42.5235C15.0117 42.5235 15.8053 41.4249 15.9182 41.0665L16.031 40.7081L17.4062 41.1719C17.4062 41.1719 16.7279 42.1949 16.6994 42.185C16.6709 42.1738 15.0117 42.5247 15.0117 42.5247V42.5235Z" fill="#6B7B3E"/>
<path d="M15.0117 42.5235C16.0843 42.6673 16.8978 43.0381 16.8978 43.0381L17.4062 41.1707L15.0117 42.5235Z" fill="#4B5B19"/>
<path d="M46.5193 32.9221C46.5193 32.9221 45.1888 33.1788 44.8602 33.3623L44.5329 33.5459L43.8496 32.2662C43.8496 32.2662 45.045 31.9859 45.0574 32.0132C45.071 32.0405 46.5193 32.9221 46.5193 32.9221Z" fill="#6B7B3E"/>
<path d="M46.5193 32.9221C45.8361 32.0826 45.4988 31.2543 45.4988 31.2543L43.8496 32.2662L46.5206 32.9221H46.5193Z" fill="#4B5B19"/>
<path d="M47.1087 30.5115C47.1087 30.5115 45.9096 31.1439 45.6492 31.4155L45.3888 31.6858L44.3633 30.6603C44.3633 30.6603 45.4247 30.0441 45.4458 30.0664C45.4669 30.0887 47.1087 30.5115 47.1087 30.5115Z" fill="#6B7B3E"/>
<path d="M47.1079 30.5116C46.2102 29.9064 45.646 29.212 45.646 29.212L44.3613 30.6591L47.1067 30.5103L47.1079 30.5116Z" fill="#4B5B19"/>
<path d="M47.364 28.2312C47.364 28.2312 46.31 29.0831 46.1066 29.3981L45.9033 29.7143L44.6992 28.9046C44.6992 28.9046 45.623 28.0961 45.6466 28.1134C45.6714 28.1308 47.364 28.23 47.364 28.23V28.2312Z" fill="#6B7B3E"/>
<path d="M47.3633 28.2312C46.3663 27.8096 45.6794 27.238 45.6794 27.238L44.6973 28.9058L47.3633 28.2312Z" fill="#4B5B19"/>
<path d="M45.6348 29.2331C45.6348 29.2331 44.5808 30.085 44.3762 30.4L44.1728 30.7162L42.9688 29.9064C42.9688 29.9064 43.8926 29.098 43.9161 29.1153C43.9409 29.1327 45.6335 29.2319 45.6335 29.2319L45.6348 29.2331Z" fill="#6B7B3E"/>
<path d="M45.6348 29.2331C44.6378 28.8115 43.9509 28.2399 43.9509 28.2399L42.9688 29.9077L45.6348 29.2331Z" fill="#4B5B19"/>
<path d="M44.7754 30.8129C44.7754 30.8129 43.7214 31.6648 43.5168 31.9797L43.3134 32.2959L42.1094 31.4862C42.1094 31.4862 43.0332 30.6777 43.0567 30.6951C43.0815 30.7125 44.7741 30.8117 44.7741 30.8117L44.7754 30.8129Z" fill="#6B7B3E"/>
<path d="M44.7754 30.8129C43.7784 30.3913 43.0914 29.8196 43.0914 29.8196L42.1094 31.4874L44.7754 30.8129Z" fill="#4B5B19"/>
<path d="M44.164 32.291C44.164 32.291 43.11 33.1429 42.9054 33.4578L42.7021 33.774L41.498 32.9643C41.498 32.9643 42.4218 32.1558 42.4466 32.1732C42.4714 32.1905 44.164 32.2897 44.164 32.2897V32.291Z" fill="#6B7B3E"/>
<path d="M44.164 32.291C43.1671 31.8694 42.4801 31.2977 42.4801 31.2977L41.498 32.9655L44.164 32.291Z" fill="#4B5B19"/>
<path d="M46.0293 27.2715C46.0293 27.2715 44.9753 28.1233 44.7707 28.4383L44.5673 28.7545L43.3633 27.9448C43.3633 27.9448 44.2871 27.1363 44.3119 27.1537C44.3367 27.171 46.0293 27.2702 46.0293 27.2702V27.2715Z" fill="#6B7B3E"/>
<path d="M46.0293 27.2714C45.0323 26.8498 44.3454 26.2782 44.3454 26.2782L43.3633 27.946L46.0293 27.2714Z" fill="#4B5B19"/>
<path d="M45.957 25.3433C45.957 25.3433 44.903 26.1952 44.6984 26.5101L44.4951 26.8263L43.291 26.0166C43.291 26.0166 44.2148 25.2081 44.2396 25.2255C44.2644 25.2429 45.957 25.342 45.957 25.342V25.3433Z" fill="#6B7B3E"/>
<path d="M45.957 25.3433C44.9601 24.9217 44.2731 24.35 44.2731 24.35L43.291 26.0178L45.957 25.3433Z" fill="#4B5B19"/>
<path d="M47.4399 26.3563C47.4399 26.3563 46.2384 26.9838 45.9767 27.2541L45.7151 27.5232L44.6934 26.4927C44.6934 26.4927 45.7573 25.8814 45.7784 25.9037C45.7994 25.9261 47.4399 26.3563 47.4399 26.3563Z" fill="#6B7B3E"/>
<path d="M47.4399 26.3563C46.5447 25.7475 45.9842 25.0506 45.9842 25.0506L44.6934 26.4927L47.4399 26.3563Z" fill="#4B5B19"/>
<path d="M47.4185 24.0549C47.4185 24.0549 46.3943 24.9428 46.2021 25.2652L46.0099 25.5876L44.7773 24.8212C44.7773 24.8212 45.6714 23.9805 45.6974 23.9979C45.7222 24.0152 47.4185 24.0549 47.4185 24.0549Z" fill="#6B7B3E"/>
<path d="M47.4193 24.0549C46.4087 23.6693 45.7018 23.1212 45.7018 23.1212L44.7793 24.8225L47.4193 24.0549Z" fill="#4B5B19"/>
<path d="M46.7672 21.4745C46.7672 21.4745 46.0009 22.593 45.8967 22.9538L45.7926 23.3146L44.4062 22.8844C44.4062 22.8844 45.0585 21.8452 45.0883 21.8552C45.1168 21.8651 46.7672 21.4745 46.7672 21.4745Z" fill="#6B7B3E"/>
<path d="M46.7672 21.4745C45.6909 21.3567 44.8688 21.0057 44.8688 21.0057L44.4062 22.8843L46.7672 21.4745Z" fill="#4B5B19"/>
<path d="M46.0044 20.0261C46.0044 20.0261 45.0843 21.0218 44.9293 21.3641L44.7743 21.7063L43.4648 21.0801C43.4648 21.0801 44.2609 20.1464 44.2882 20.1601C44.3155 20.1737 46.0044 20.0261 46.0044 20.0261Z" fill="#6B7B3E"/>
<path d="M46.0044 20.0261C44.9566 19.7546 44.194 19.2871 44.194 19.2871L43.4648 21.0801L46.0044 20.0261Z" fill="#4B5B19"/>
<path d="M44.8748 17.9603C44.8748 17.9603 44.2101 19.1408 44.137 19.5103L44.065 19.8786L42.6465 19.5723C42.6465 19.5723 43.2057 18.4799 43.2355 18.4873C43.2652 18.4948 44.8748 17.9603 44.8748 17.9603Z" fill="#6B7B3E"/>
<path d="M44.8755 17.9603C43.793 17.938 42.9435 17.6602 42.9435 17.6602L42.6484 19.5723L44.8767 17.9603H44.8755Z" fill="#4B5B19"/>
<path d="M37.7458 47.352C37.7458 47.352 36.5443 46.7246 36.1735 46.6638L35.8027 46.6031L36.0644 45.1758C36.0644 45.1758 37.1742 45.7004 37.168 45.7301C37.1618 45.7599 37.7458 47.352 37.7458 47.352Z" fill="#6B7B3E"/>
<path d="M37.7459 47.352C37.7347 46.2695 37.9852 45.4114 37.9852 45.4114L36.0645 45.1758L37.7459 47.352Z" fill="#4B5B19"/>
<path d="M39.6221 45.6917C39.6221 45.6917 38.3077 45.3581 37.9333 45.3854L37.5588 45.4114L37.4844 43.9619C37.4844 43.9619 38.6847 44.2161 38.6859 44.2458C38.6859 44.2768 39.6234 45.6904 39.6234 45.6904L39.6221 45.6917Z" fill="#6B7B3E"/>
<path d="M39.6221 45.6917C39.3617 44.6414 39.4076 43.7486 39.4076 43.7486L37.4844 43.9631L39.6221 45.6917Z" fill="#4B5B19"/>
<path d="M41.3478 43.8292C41.3478 43.8292 39.9925 43.8391 39.6367 43.9594L39.2808 44.0797L38.8418 42.6971C38.8418 42.6971 40.0682 42.6388 40.0756 42.6686C40.0843 42.6983 41.3478 43.8292 41.3478 43.8292Z" fill="#6B7B3E"/>
<path d="M41.3478 43.8292C40.8295 42.8794 40.6485 42.0027 40.6485 42.0027L38.8418 42.6971L41.3478 43.8292Z" fill="#4B5B19"/>
<path d="M42.5385 42.2544C42.5385 42.2544 41.2079 41.9977 40.8347 42.046L40.4615 42.0944L40.3027 40.6523C40.3027 40.6523 41.5167 40.8358 41.5179 40.8668C41.5204 40.8966 42.536 42.2556 42.536 42.2556L42.5385 42.2544Z" fill="#6B7B3E"/>
<path d="M42.5392 42.2544C42.218 41.2214 42.2118 40.3262 42.2118 40.3262L40.3047 40.6511L42.5392 42.2531V42.2544Z" fill="#4B5B19"/>
<path d="M41.4747 40.9722C41.4747 40.9722 40.1442 40.7155 39.771 40.7639L39.399 40.8122L39.2402 39.3701C39.2402 39.3701 40.4542 39.5537 40.4554 39.5847C40.4579 39.6144 41.4735 40.9734 41.4735 40.9734L41.4747 40.9722Z" fill="#6B7B3E"/>
<path d="M41.4747 40.9722C41.1536 39.9381 41.1474 39.044 41.1474 39.044L39.2402 39.3689L41.4747 40.9722Z" fill="#4B5B19"/>
<path d="M41.1791 39.0614C41.1791 39.0614 39.8486 38.8047 39.4753 38.853L39.1021 38.9014L38.9434 37.4593C38.9434 37.4593 40.1573 37.6428 40.1586 37.6738C40.161 37.7036 41.1766 39.0626 41.1766 39.0626L41.1791 39.0614Z" fill="#6B7B3E"/>
<path d="M41.1798 39.0614C40.8586 38.0285 40.8524 37.1332 40.8524 37.1332L38.9453 37.4581L41.1798 39.0601V39.0614Z" fill="#4B5B19"/>
<path d="M40.8529 42.6884C40.8529 42.6884 39.5224 42.4317 39.1491 42.4801L38.7759 42.5284L38.6172 41.0863C38.6172 41.0863 39.8311 41.2698 39.8324 41.3008C39.8336 41.3318 40.8504 42.6896 40.8504 42.6896L40.8529 42.6884Z" fill="#6B7B3E"/>
<path d="M40.8524 42.6884C40.5312 41.6555 40.5262 40.7602 40.5262 40.7602L38.6191 41.0851L40.8536 42.6871L40.8524 42.6884Z" fill="#4B5B19"/>
<path d="M39.1954 44.164C39.1954 44.164 37.8649 43.9073 37.4917 43.9557L37.1197 44.004L36.9609 42.5619C36.9609 42.5619 38.1749 42.7454 38.1761 42.7764C38.1786 42.8062 39.1942 44.1652 39.1942 44.1652L39.1954 44.164Z" fill="#6B7B3E"/>
<path d="M39.1961 44.164C38.875 43.1298 38.87 42.2358 38.87 42.2358L36.9629 42.5607L39.1974 44.164H39.1961Z" fill="#4B5B19"/>
<path d="M37.8236 45.6421C37.8236 45.6421 36.4931 45.3854 36.1199 45.4337L35.7466 45.4821L35.5879 44.04C35.5879 44.04 36.8019 44.2235 36.8031 44.2545C36.8056 44.2843 37.8211 45.6433 37.8211 45.6433L37.8236 45.6421Z" fill="#6B7B3E"/>
<path d="M37.8231 45.6421C37.5019 44.6092 37.497 43.7139 37.497 43.7139L35.5898 44.0387L37.8243 45.6408L37.8231 45.6421Z" fill="#4B5B19"/>
<path d="M43.6331 40.3262C43.6331 40.3262 42.279 40.3832 41.9281 40.5159L41.5772 40.6486L41.0898 39.2821C41.0898 39.2821 42.3137 39.1804 42.3224 39.2102C42.3311 39.2387 43.6343 40.3262 43.6343 40.3262H43.6331Z" fill="#6B7B3E"/>
<path d="M43.6331 40.3262C43.0825 39.3949 42.8705 38.5257 42.8705 38.5257L41.0898 39.2821L43.6343 40.3262H43.6331Z" fill="#4B5B19"/>
<path d="M44.6943 38.5493C44.6943 38.5493 43.3985 38.9473 43.0922 39.1643L42.7859 39.3813L41.9688 38.1822C41.9688 38.1822 43.1269 37.7755 43.1431 37.8016C43.1592 37.8276 44.6943 38.5493 44.6943 38.5493Z" fill="#6B7B3E"/>
<path d="M44.695 38.5492C43.9262 37.7879 43.5021 37.0005 43.5021 37.0005L41.9707 38.1835L44.6963 38.5505L44.695 38.5492Z" fill="#4B5B19"/>
<path d="M45.1085 36.9398C45.1085 36.9398 43.7693 37.1468 43.4345 37.3167L43.0997 37.4878L42.4648 36.1834C42.4648 36.1834 43.6689 35.9478 43.6813 35.9763C43.6937 36.0036 45.1085 36.9398 45.1085 36.9398Z" fill="#6B7B3E"/>
<path d="M45.1085 36.9397C44.4575 36.0742 44.1513 35.2347 44.1513 35.2347L42.4648 36.1833L45.1085 36.9397Z" fill="#4B5B19"/>
<path d="M45.7817 34.6432C45.7817 34.6432 44.5256 35.1528 44.2404 35.3971L43.954 35.6402L43.0352 34.518C43.0352 34.518 44.1524 34.0108 44.171 34.0344C44.1896 34.0592 45.7817 34.6432 45.7817 34.6432Z" fill="#6B7B3E"/>
<path d="M45.7817 34.6432C44.9497 33.9513 44.4574 33.2048 44.4574 33.2048L43.0352 34.518L45.7817 34.6432Z" fill="#4B5B19"/>
<path d="M35.2559 48.3539C35.2559 48.3539 34.2713 47.4227 33.9316 47.2627L33.5918 47.1028L34.2329 45.8008C34.2329 45.8008 35.1579 46.608 35.143 46.6341C35.1282 46.6613 35.2571 48.3527 35.2571 48.3527L35.2559 48.3539Z" fill="#6B7B3E"/>
<path d="M35.2567 48.3539C35.5406 47.3099 36.0168 46.5522 36.0168 46.5522L34.2324 45.802L35.2567 48.3539Z" fill="#4B5B19"/>
<path d="M44.7351 34.3618C44.7351 34.3618 43.3847 34.4771 43.0387 34.6247L42.6928 34.7722L42.1484 33.4268C42.1484 33.4268 43.3661 33.2743 43.3773 33.3028C43.3884 33.3313 44.7351 34.3618 44.7351 34.3618Z" fill="#6B7B3E"/>
<path d="M44.7358 34.3618C44.1455 33.4541 43.8975 32.5948 43.8975 32.5948L42.1504 33.4268L44.7358 34.3618Z" fill="#4B5B19"/>
<path d="M45.563 32.1162C45.563 32.1162 44.2759 32.539 43.9734 32.7635L43.6708 32.9866L42.8301 31.8037C42.8301 31.8037 43.9795 31.3734 43.9969 31.3995C44.0143 31.4243 45.5618 32.1162 45.5618 32.1162H45.563Z" fill="#6B7B3E"/>
<path d="M45.5638 32.1161C44.7801 31.3697 44.3399 30.5909 44.3399 30.5909L42.832 31.8037L45.5638 32.1161Z" fill="#4B5B19"/>
<path d="M34.4815 47.7823C34.4815 47.7823 33.3531 47.0308 32.991 46.9316L32.6289 46.8324L33.0406 45.4412C33.0406 45.4412 34.0884 46.0798 34.0797 46.1083C34.0698 46.1368 34.4827 47.7823 34.4827 47.7823H34.4815Z" fill="#6B7B3E"/>
<path d="M34.4819 47.7823C34.5848 46.7047 34.9258 45.8777 34.9258 45.8777L33.041 45.4399L34.4832 47.7811L34.4819 47.7823Z" fill="#4B5B19"/>
<path d="M36.5244 46.3302C36.5244 46.3302 35.2534 45.8602 34.8777 45.8466L34.502 45.833L34.5813 44.3846C34.5813 44.3846 35.7482 44.7641 35.7457 44.7938C35.7432 44.8236 36.5244 46.3302 36.5244 46.3302Z" fill="#6B7B3E"/>
<path d="M36.5251 46.3302C36.3763 45.2576 36.5177 44.3748 36.5177 44.3748L34.582 44.3847L36.5251 46.3302Z" fill="#4B5B19"/>
<path d="M38.4385 44.6613C38.4385 44.6613 37.0894 44.5273 36.7236 44.6092L36.3566 44.691L36.0664 43.2687C36.0664 43.2687 37.2915 43.3407 37.2965 43.3704C37.3014 43.4002 38.4385 44.66 38.4385 44.66V44.6613Z" fill="#6B7B3E"/>
<path d="M38.4385 44.6612C38.0244 43.6618 37.9363 42.7715 37.9363 42.7715L36.0664 43.27L38.4385 44.6612Z" fill="#4B5B19"/>
<path d="M39.6928 43.4225C39.6928 43.4225 38.397 43.0269 38.0213 43.0343L37.6456 43.043L37.6406 41.5922C37.6406 41.5922 38.8273 41.9035 38.8273 41.9345C38.8273 41.9655 39.6928 43.4225 39.6928 43.4225Z" fill="#6B7B3E"/>
<path d="M39.6928 43.4225C39.4833 42.361 39.5726 41.4707 39.5726 41.4707L37.6406 41.5922L39.6928 43.4225Z" fill="#4B5B19"/>
<path d="M40.9856 41.6207C40.9856 41.6207 39.6328 41.5352 39.2695 41.6294L38.9062 41.7249L38.5664 40.3138C38.5664 40.3138 39.794 40.3423 39.8002 40.3721C39.8064 40.4018 40.9869 41.6207 40.9869 41.6207H40.9856Z" fill="#6B7B3E"/>
<path d="M40.9856 41.6207C40.5368 40.6362 40.4177 39.7496 40.4177 39.7496L38.5664 40.3138L40.9856 41.6207Z" fill="#4B5B19"/>
<path d="M42.3233 39.7644C42.3233 39.7644 40.9928 40.0224 40.6654 40.2071L40.3381 40.3907L39.6523 39.1122C39.6523 39.1122 40.8465 38.8295 40.8601 38.8568C40.8737 38.8841 42.3233 39.7644 42.3233 39.7644Z" fill="#6B7B3E"/>
<path d="M42.3233 39.7645C41.6401 38.925 41.3003 38.0979 41.3003 38.0979L39.6523 39.111L42.3233 39.7645Z" fill="#4B5B19"/>
<path d="M42.9069 38.2083C42.9069 38.2083 41.5528 38.2715 41.2019 38.4067L40.851 38.5406L40.3574 37.1766C40.3574 37.1766 41.5801 37.07 41.59 37.0985C41.5999 37.127 42.9069 38.2083 42.9069 38.2083Z" fill="#6B7B3E"/>
<path d="M42.9069 38.2083C42.3513 37.2795 42.1356 36.4115 42.1356 36.4115L40.3574 37.1766L42.9056 38.2083H42.9069Z" fill="#4B5B19"/>
<path d="M43.8197 35.9948C43.8197 35.9948 42.5177 36.3693 42.2064 36.5813L41.8964 36.7934L41.1016 35.5794C41.1016 35.5794 42.2672 35.1938 42.282 35.2198C42.2982 35.2459 43.8197 35.9961 43.8197 35.9961V35.9948Z" fill="#6B7B3E"/>
<path d="M43.8197 35.9948C43.0645 35.2186 42.654 34.425 42.654 34.425L41.1016 35.5794L43.8197 35.9948Z" fill="#4B5B19"/>
<path d="M31.9016 48.5151C31.9016 48.5151 31.0212 47.4847 30.7001 47.29L30.3789 47.0953L31.1539 45.869C31.1539 45.869 31.9884 46.7692 31.9711 46.794C31.9537 46.8188 31.9016 48.5139 31.9016 48.5139V48.5151Z" fill="#6B7B3E"/>
<path d="M31.902 48.5151C32.2951 47.507 32.8482 46.8039 32.8482 46.8039L31.1543 45.869L31.902 48.5151Z" fill="#4B5B19"/>
<path d="M44.3009 30.3764C44.3009 30.3764 42.9729 30.6443 42.6455 30.8303L42.3194 31.0163L41.625 29.7428C41.625 29.7428 42.8179 29.4514 42.8315 29.4787C42.8452 29.506 44.3009 30.3752 44.3009 30.3752V30.3764Z" fill="#6B7B3E"/>
<path d="M44.3009 30.3764C43.6115 29.5419 43.2655 28.7173 43.2655 28.7173L41.625 29.7428L44.3009 30.3764Z" fill="#4B5B19"/>
<path d="M44.8663 28.0501C44.8663 28.0501 43.6362 28.6181 43.3609 28.8747L43.0868 29.1314L42.1172 28.0526C42.1172 28.0526 43.2109 27.4946 43.2295 27.5182C43.2493 27.5417 44.8663 28.0514 44.8663 28.0514V28.0501Z" fill="#6B7B3E"/>
<path d="M44.8655 28.0502C44.0025 27.3979 43.4755 26.675 43.4755 26.675L42.1152 28.0514H44.8655V28.0502Z" fill="#4B5B19"/>
<path d="M35.6465 44.8806C35.6465 44.8806 34.44 44.2631 34.068 44.2061L33.6973 44.149L33.9465 42.7193C33.9465 42.7193 35.0613 43.2339 35.0551 43.2637C35.0489 43.2934 35.6465 44.8806 35.6465 44.8806Z" fill="#6B7B3E"/>
<path d="M35.6473 44.8806C35.6262 43.7981 35.8705 42.9376 35.8705 42.9376L33.9473 42.7181L35.6473 44.8794V44.8806Z" fill="#4B5B19"/>
<path d="M37.51 43.2055C37.51 43.2055 36.1932 42.8831 35.8187 42.9128L35.4442 42.9426L35.3574 41.4943C35.3574 41.4943 36.5602 41.7373 36.5615 41.7683C36.5615 41.7993 37.51 43.2055 37.51 43.2055Z" fill="#6B7B3E"/>
<path d="M37.51 43.2055C37.2397 42.1577 37.2782 41.2636 37.2782 41.2636L35.3574 41.4942L37.51 43.2055Z" fill="#4B5B19"/>
<path d="M39.2218 41.3281C39.2218 41.3281 37.8664 41.3492 37.5118 41.4732L37.1572 41.5972L36.707 40.2183C36.707 40.2183 37.9321 40.1501 37.9408 40.1786C37.9495 40.2084 39.2218 41.3293 39.2218 41.3293V41.3281Z" fill="#6B7B3E"/>
<path d="M39.2218 41.3281C38.696 40.3819 38.5075 39.5078 38.5075 39.5078L36.707 40.217L39.2218 41.3281Z" fill="#4B5B19"/>
<path d="M40.3262 39.9542C40.3262 39.9542 38.9932 39.7086 38.6212 39.7595L38.2492 39.8103L38.0781 38.3694C38.0781 38.3694 39.2933 38.543 39.2958 38.574C39.2983 38.6038 40.3262 39.9542 40.3262 39.9542Z" fill="#6B7B3E"/>
<path d="M40.3262 39.9541C39.9964 38.9237 39.9828 38.0297 39.9828 38.0297L38.0781 38.3707L40.3262 39.9541Z" fill="#4B5B19"/>
<path d="M41.4028 38.016C41.4028 38.016 40.0487 38.0854 39.699 38.2206L39.3481 38.357L38.8496 36.9942C38.8496 36.9942 40.0722 36.8826 40.0809 36.9112C40.0896 36.9397 41.4015 38.016 41.4015 38.016H41.4028Z" fill="#6B7B3E"/>
<path d="M41.4028 38.016C40.8435 37.0897 40.6241 36.2217 40.6241 36.2217L38.8496 36.9943L41.4028 38.016Z" fill="#4B5B19"/>
<path d="M42.5222 36.0184C42.5222 36.0184 41.2301 36.4276 40.9251 36.6471L40.62 36.8666L39.793 35.6749C39.793 35.6749 40.9474 35.2583 40.9635 35.2843C40.9796 35.3104 42.521 36.0184 42.521 36.0184H42.5222Z" fill="#6B7B3E"/>
<path d="M42.5229 36.0184C41.7479 35.2632 41.3164 34.4796 41.3164 34.4796L39.7949 35.6749L42.5229 36.0184Z" fill="#4B5B19"/>
<path d="M42.9246 34.4063C42.9246 34.4063 41.5866 34.6246 41.2531 34.7982L40.9195 34.9718L40.2734 33.6723C40.2734 33.6723 41.4762 33.4267 41.4886 33.454C41.501 33.4813 42.9233 34.4063 42.9233 34.4063H42.9246Z" fill="#6B7B3E"/>
<path d="M42.9253 34.4064C42.2681 33.5471 41.9544 32.7088 41.9544 32.7088L40.2754 33.6723L42.9253 34.4064Z" fill="#4B5B19"/>
<path d="M43.5779 32.1037C43.5779 32.1037 42.3268 32.6245 42.0428 32.87L41.7588 33.1155L40.8301 32.0008C40.8301 32.0008 41.9436 31.4837 41.9622 31.5085C41.9808 31.5321 43.5779 32.1037 43.5779 32.1037Z" fill="#6B7B3E"/>
<path d="M43.5779 32.1037C42.7397 31.4192 42.2412 30.6765 42.2412 30.6765L40.8301 32.0008L43.5779 32.1037Z" fill="#4B5B19"/>
<path d="M33.1674 45.9037C33.1674 45.9037 32.1754 44.9811 31.8332 44.8236L31.4922 44.6674L32.1221 43.3604C32.1221 43.3604 33.0533 44.1602 33.0397 44.1863C33.0261 44.2135 33.1674 45.9037 33.1674 45.9037Z" fill="#6B7B3E"/>
<path d="M33.1676 45.9037C33.4429 44.8571 33.9116 44.0957 33.9116 44.0957L32.1211 43.3604L33.1664 45.9037H33.1676Z" fill="#4B5B19"/>
<path d="M43.7619 29.1215C43.7619 29.1215 42.4338 29.3894 42.1065 29.5754L41.7803 29.7614L41.0859 28.4879C41.0859 28.4879 42.2788 28.1965 42.2925 28.2238C42.3061 28.2511 43.7619 29.1203 43.7619 29.1203V29.1215Z" fill="#6B7B3E"/>
<path d="M43.7619 29.1215C43.0724 28.287 42.7265 27.4624 42.7265 27.4624L41.0859 28.4879L43.7619 29.1215Z" fill="#4B5B19"/>
<path d="M44.3272 26.7965C44.3272 26.7965 43.0971 27.3645 42.8218 27.6211L42.5478 27.8778L41.5781 26.799C41.5781 26.799 42.6718 26.241 42.6904 26.2646C42.7102 26.2881 44.3272 26.7978 44.3272 26.7978V26.7965Z" fill="#6B7B3E"/>
<path d="M44.3265 26.7966C43.4634 26.1443 42.9364 25.4214 42.9364 25.4214L41.5762 26.7978H44.3265V26.7966Z" fill="#4B5B19"/>
<path d="M35.1094 43.6258C35.1094 43.6258 33.9029 43.0083 33.5309 42.9512L33.1602 42.8942L33.4094 41.4645C33.4094 41.4645 34.5241 41.9791 34.5179 42.0088C34.5117 42.0386 35.1094 43.6258 35.1094 43.6258Z" fill="#6B7B3E"/>
<path d="M35.1102 43.6258C35.0891 42.5433 35.3334 41.6827 35.3334 41.6827L33.4102 41.4633L35.1102 43.6246V43.6258Z" fill="#4B5B19"/>
<path d="M36.973 41.9506C36.973 41.9506 35.6561 41.6282 35.2816 41.6579L34.9071 41.6877L34.8203 40.2394C34.8203 40.2394 36.0231 40.4824 36.0243 40.5134C36.0243 40.5444 36.973 41.9506 36.973 41.9506Z" fill="#6B7B3E"/>
<path d="M36.973 41.9506C36.7026 40.9028 36.7411 40.0087 36.7411 40.0087L34.8203 40.2394L36.973 41.9506Z" fill="#4B5B19"/>
<path d="M38.6827 40.0732C38.6827 40.0732 37.3274 40.0943 36.9727 40.2183L36.6181 40.3423L36.168 38.9634C36.168 38.9634 37.3931 38.8952 37.4018 38.9237C37.4104 38.9535 38.6827 40.0744 38.6827 40.0744V40.0732Z" fill="#6B7B3E"/>
<path d="M38.6827 40.0732C38.1569 39.1271 37.9685 38.2529 37.9685 38.2529L36.168 38.9622L38.6827 40.0732Z" fill="#4B5B19"/>
<path d="M39.7872 38.6993C39.7872 38.6993 38.4542 38.4538 38.0822 38.5047L37.7102 38.5555L37.5391 37.1146C37.5391 37.1146 38.7543 37.2882 38.7568 37.3192C38.7592 37.349 39.7872 38.6993 39.7872 38.6993Z" fill="#6B7B3E"/>
<path d="M39.7872 38.6993C39.4574 37.6689 39.4437 36.7748 39.4437 36.7748L37.5391 37.1158L39.7872 38.6993Z" fill="#4B5B19"/>
<path d="M40.8657 36.7625C40.8657 36.7625 39.5116 36.8319 39.1619 36.9671L38.811 37.1035L38.3125 35.7407C38.3125 35.7407 39.5352 35.6291 39.5438 35.6576C39.5538 35.6861 40.8644 36.7625 40.8644 36.7625H40.8657Z" fill="#6B7B3E"/>
<path d="M40.8657 36.7624C40.3064 35.8362 40.0869 34.9681 40.0869 34.9681L38.3125 35.7407L40.8657 36.7624Z" fill="#4B5B19"/>
<path d="M37.0167 40.5159C37.0167 40.5159 35.6614 40.537 35.3067 40.661L34.9521 40.785L34.502 39.4061C34.502 39.4061 35.7271 39.3379 35.7358 39.3664C35.7445 39.3962 37.0167 40.5171 37.0167 40.5171V40.5159Z" fill="#6B7B3E"/>
<path d="M37.0167 40.5159C36.4909 39.5697 36.3024 38.6956 36.3024 38.6956L34.502 39.4048L37.0167 40.5159Z" fill="#4B5B19"/>
<path d="M34.9034 40.9784C34.9034 40.9784 33.5481 40.9995 33.1934 41.1235L32.8388 41.2475L32.3887 39.8686C32.3887 39.8686 33.6138 39.8004 33.6225 39.8289C33.6311 39.8587 34.9034 40.9797 34.9034 40.9797V40.9784Z" fill="#6B7B3E"/>
<path d="M34.9034 40.9784C34.3776 40.0323 34.1891 39.1581 34.1891 39.1581L32.3887 39.8674L34.9034 40.9784Z" fill="#4B5B19"/>
<path d="M38.1212 39.142C38.1212 39.142 36.7882 38.8965 36.4162 38.9474L36.0442 38.9982L35.873 37.5573C35.873 37.5573 37.0883 37.7309 37.0907 37.7619C37.0932 37.7917 38.1212 39.142 38.1212 39.142Z" fill="#6B7B3E"/>
<path d="M38.1212 39.142C37.7913 38.1116 37.7777 37.2175 37.7777 37.2175L35.873 37.5585L38.1212 39.142Z" fill="#4B5B19"/>
<path d="M39.1997 37.2051C39.1997 37.2051 37.8456 37.2745 37.4959 37.4097L37.145 37.5461L36.6465 36.1833C36.6465 36.1833 37.8691 36.0717 37.8778 36.1002C37.8865 36.1288 39.1984 37.2051 39.1984 37.2051H39.1997Z" fill="#6B7B3E"/>
<path d="M39.1997 37.2051C38.6404 36.2788 38.4209 35.4108 38.4209 35.4108L36.6465 36.1821L39.1997 37.2039V37.2051Z" fill="#4B5B19"/>
<path d="M41.9831 34.7648C41.9831 34.7648 40.6911 35.174 40.386 35.3935L40.081 35.613L39.2539 34.4201C39.2539 34.4201 40.4083 34.0035 40.4245 34.0295C40.4406 34.0555 41.9819 34.7636 41.9819 34.7636L41.9831 34.7648Z" fill="#6B7B3E"/>
<path d="M41.9839 34.7648C41.2089 34.0096 40.7773 33.226 40.7773 33.226L39.2559 34.4213L41.9839 34.7648Z" fill="#4B5B19"/>
<path d="M42.3842 33.1527C42.3842 33.1527 41.0463 33.371 40.714 33.5446L40.3804 33.7182L39.7344 32.4187C39.7344 32.4187 40.9372 32.1731 40.9496 32.2004C40.962 32.2277 42.3842 33.1527 42.3842 33.1527Z" fill="#6B7B3E"/>
<path d="M42.3842 33.1528C41.727 32.2934 41.4133 31.4552 41.4133 31.4552L39.7344 32.4187L42.3842 33.1528Z" fill="#4B5B19"/>
<path d="M43.0388 30.8501C43.0388 30.8501 41.7877 31.3709 41.5037 31.6164L41.2198 31.8619L40.291 30.7472C40.291 30.7472 41.4045 30.2301 41.4231 30.2549C41.4417 30.2785 43.0388 30.8501 43.0388 30.8501Z" fill="#6B7B3E"/>
<path d="M43.0388 30.8501C42.2006 30.1656 41.7021 29.4229 41.7021 29.4229L40.291 30.7472L43.0388 30.8501Z" fill="#4B5B19"/>
<path d="M32.6284 44.6501C32.6284 44.6501 31.6364 43.7275 31.2941 43.57L30.9531 43.4138L31.583 42.1068C31.583 42.1068 32.5143 42.9066 32.5006 42.9327C32.487 42.9599 32.6284 44.6501 32.6284 44.6501Z" fill="#6B7B3E"/>
<path d="M32.6293 44.6501C32.9046 43.6035 33.3746 42.8421 33.3746 42.8421L31.584 42.1068L32.6293 44.6501Z" fill="#4B5B19"/>
<path d="M17.9331 46.6539C17.9331 46.6539 17.9864 45.2998 17.8834 44.939L17.7793 44.5781L19.1817 44.2049C19.1817 44.2049 19.1817 45.4325 19.1532 45.4387C19.1234 45.4449 17.9343 46.6551 17.9343 46.6551L17.9331 46.6539Z" fill="#6B7B3E"/>
<path d="M17.9329 46.6539C18.9063 46.1815 19.7892 46.0413 19.7892 46.0413L19.1803 44.2049L17.9316 46.6551L17.9329 46.6539Z" fill="#4B5B19"/>
<path d="M19.8565 48.0427C19.8565 48.0427 19.5961 46.7122 19.4113 46.3848L19.2266 46.0574L20.505 45.3705C20.505 45.3705 20.789 46.5646 20.7617 46.5782C20.7344 46.5919 19.8565 48.0427 19.8565 48.0427Z" fill="#6B7B3E"/>
<path d="M19.8574 48.0427C20.6957 47.3582 21.5227 47.0172 21.5227 47.0172L20.5072 45.3705L19.8587 48.0427H19.8574Z" fill="#4B5B19"/>
<path d="M21.7992 48.9975C21.7992 48.9975 21.2115 47.7761 20.9498 47.5058L20.6895 47.2355L21.7521 46.2472C21.7521 46.2472 22.3287 47.331 22.3052 47.3508C22.2816 47.3706 21.7992 48.9963 21.7992 48.9963V48.9975Z" fill="#6B7B3E"/>
<path d="M21.7983 48.9975C22.4357 48.1233 23.1499 47.5851 23.1499 47.5851L21.75 46.2484L21.7971 48.9975H21.7983Z" fill="#4B5B19"/>
<path d="M23.2696 49.827C23.2696 49.827 22.6669 48.6131 22.4028 48.3452L22.1387 48.0774L23.1902 47.0767C23.1902 47.0767 23.7792 48.153 23.7569 48.1741C23.7346 48.194 23.2696 49.8258 23.2696 49.8258V49.827Z" fill="#6B7B3E"/>
<path d="M23.2688 49.827C23.8963 48.9454 24.6043 48.3985 24.6043 48.3985L23.1895 47.0779L23.2688 49.827Z" fill="#4B5B19"/>
<path d="M27.0937 50.2449C27.0937 50.2449 26.4625 49.0458 26.1922 48.7842L25.9219 48.5238L26.9486 47.4996C26.9486 47.4996 27.5624 48.5623 27.5401 48.5833C27.5178 48.6044 27.0924 50.2462 27.0924 50.2462L27.0937 50.2449Z" fill="#6B7B3E"/>
<path d="M27.093 50.245C27.6994 49.3484 28.395 48.7855 28.395 48.7855L26.9492 47.4984L27.093 50.245Z" fill="#4B5B19"/>
<path d="M25.3515 50.3714C25.3515 50.3714 24.7203 49.1723 24.45 48.9107L24.1797 48.6503L25.2077 47.626C25.2077 47.626 25.8215 48.6887 25.7991 48.7098C25.7768 48.7309 25.3515 50.3726 25.3515 50.3726V50.3714Z" fill="#6B7B3E"/>
<path d="M25.3509 50.3714C25.9572 49.4749 26.6529 48.9119 26.6529 48.9119L25.207 47.6248L25.3509 50.3714Z" fill="#4B5B19"/>
<path d="M29.4494 50.054C29.4494 50.054 28.5356 49.0533 28.2082 48.8685L27.8809 48.685L28.6162 47.4338C28.6162 47.4338 29.4792 48.3068 29.4631 48.3328C29.447 48.3589 29.4494 50.0552 29.4494 50.0552V50.054Z" fill="#6B7B3E"/>
<path d="M29.4485 50.054C29.8094 49.0334 30.3389 48.313 30.3389 48.313L28.6152 47.4338L29.4485 50.054Z" fill="#4B5B19"/>
<path d="M31.4233 49.5468C31.4233 49.5468 30.4313 48.6243 30.089 48.4668L29.748 48.3106L30.3779 47.0036C30.3779 47.0036 31.3092 47.8034 31.2956 47.8294C31.2819 47.8567 31.4233 49.5468 31.4233 49.5468Z" fill="#6B7B3E"/>
<path d="M31.4242 49.5468C31.6995 48.5003 32.1695 47.7389 32.1695 47.7389L30.3789 47.0036L31.4242 49.5468Z" fill="#4B5B19"/>
<path d="M33.2862 49.0843C33.2862 49.0843 32.288 48.1667 31.9458 48.0129L31.6035 47.8579L32.226 46.5472C32.226 46.5472 33.1622 47.3408 33.1486 47.3681C33.1349 47.3954 33.2874 49.0843 33.2874 49.0843H33.2862Z" fill="#6B7B3E"/>
<path d="M33.2868 49.0843C33.5558 48.0365 34.0208 47.2714 34.0208 47.2714L32.2266 46.5472L33.2868 49.0843Z" fill="#4B5B19"/>
<path d="M16.2082 44.7307C16.2082 44.7307 16.6981 43.4671 16.7167 43.0914L16.7352 42.7157L18.1823 42.8161C18.1823 42.8161 17.7855 43.978 17.7545 43.9743C17.7248 43.9706 16.207 44.7295 16.207 44.7295L16.2082 44.7307Z" fill="#6B7B3E"/>
<path d="M16.209 44.7307C17.2828 44.5993 18.1645 44.7518 18.1645 44.7518L18.1843 42.8162L16.2102 44.7295L16.209 44.7307Z" fill="#4B5B19"/>
<path d="M42.998 14.0865L43.9417 15.1009L44.3063 14.5937L42.998 14.0865Z" fill="#261C02"/>
<path d="M44.2559 11.3288C44.2559 11.3288 44.6018 11.9389 45.1387 12.2873C45.6756 12.637 45.7773 12.3927 45.7773 12.3927L45.9571 11.9872C45.9571 11.9872 45.5839 12.0592 45.2094 11.9017C44.8337 11.7442 44.2559 11.3276 44.2559 11.3276V11.3288Z" fill="#261C02"/>
<path d="M43.4043 13.4467C43.4043 13.4467 43.7503 14.0568 44.2872 14.4052C44.8241 14.7549 44.9258 14.5106 44.9258 14.5106L45.1056 14.1051C45.1056 14.1051 44.7323 14.177 44.3578 14.0196C43.9821 13.8621 43.4043 13.4454 43.4043 13.4454V13.4467Z" fill="#261C02"/>
<path d="M25.953 48.9975C25.953 48.9975 25.3219 47.7984 25.0516 47.5368L24.7812 47.2764L25.808 46.2521C25.808 46.2521 26.4218 47.3148 26.3995 47.3359C26.3771 47.357 25.9518 48.9987 25.9518 48.9987L25.953 48.9975Z" fill="#6B7B3E"/>
<path d="M25.9524 48.9975C26.5588 48.101 27.2544 47.538 27.2544 47.538L25.8086 46.2509L25.9524 48.9975Z" fill="#4B5B19"/>
<path d="M24.3242 48.7247C24.3242 48.7247 23.693 47.5256 23.4227 47.2639L23.1523 47.0035L24.1791 45.9793C24.1791 45.9793 24.7929 47.042 24.7706 47.0631C24.7482 47.0841 24.3229 48.7259 24.3229 48.7259L24.3242 48.7247Z" fill="#6B7B3E"/>
<path d="M24.3235 48.7247C24.9299 47.8282 25.6255 47.2652 25.6255 47.2652L24.1797 45.9781L24.3235 48.7235V48.7247Z" fill="#4B5B19"/>
<path d="M22.6933 48.0265C22.6933 48.0265 22.0621 46.8275 21.7918 46.5658L21.5215 46.3054L22.5482 45.2812C22.5482 45.2812 23.162 46.3439 23.1397 46.3649C23.1174 46.386 22.692 48.0278 22.692 48.0278L22.6933 48.0265Z" fill="#6B7B3E"/>
<path d="M22.6927 48.0266C23.299 47.1301 23.9947 46.5671 23.9947 46.5671L22.5488 45.28L22.6927 48.0266Z" fill="#4B5B19"/>
<path d="M21.1737 47.2429C21.1737 47.2429 20.5426 46.0438 20.2723 45.7822L20.002 45.5218L21.0287 44.4976C21.0287 44.4976 21.6425 45.5602 21.6202 45.5813C21.5978 45.6024 21.1725 47.2441 21.1725 47.2441L21.1737 47.2429Z" fill="#6B7B3E"/>
<path d="M21.1731 47.2429C21.7795 46.3464 22.4751 45.7835 22.4751 45.7835L21.0293 44.4963L21.1731 47.2429Z" fill="#4B5B19"/>
<path d="M19.3973 46.0376C19.3973 46.0376 19.4766 44.6848 19.3799 44.3215L19.2832 43.9581L20.6919 43.6122C20.6919 43.6122 20.6683 44.8398 20.6385 44.846C20.6088 44.8522 19.3961 46.0376 19.3961 46.0376H19.3973Z" fill="#6B7B3E"/>
<path d="M19.3965 46.0376C20.3786 45.5838 21.2651 45.461 21.2651 45.461L20.6923 43.6122L19.3965 46.0376Z" fill="#4B5B19"/>
<path d="M33.5634 42.9153C33.5634 42.9153 32.3258 42.3635 31.9514 42.3263L31.5781 42.2891L31.7505 40.8482C31.7505 40.8482 32.89 41.3033 32.8863 41.3331C32.8813 41.3628 33.5634 42.9165 33.5634 42.9165V42.9153Z" fill="#6B7B3E"/>
<path d="M33.5629 42.9153C33.4848 41.8353 33.6819 40.9635 33.6819 40.9635L31.75 40.8482L33.5629 42.9153Z" fill="#4B5B19"/>
<path d="M35.8972 39.1296C35.8972 39.1296 34.5518 38.9646 34.1836 39.039L33.8153 39.1122L33.5586 37.6837C33.5586 37.6837 34.7825 37.7842 34.7862 37.8139C34.7911 37.8437 35.8972 39.1283 35.8972 39.1283V39.1296Z" fill="#6B7B3E"/>
<path d="M35.8965 39.1296C35.5047 38.1202 35.4377 37.2286 35.4377 37.2286L33.5566 37.6837L35.8965 39.1296Z" fill="#4B5B19"/>
<path d="M38.1687 35.923C38.1687 35.923 36.8233 35.758 36.455 35.8324L36.0867 35.9056L35.8301 34.4771C35.8301 34.4771 37.0539 34.5776 37.0577 34.6073C37.0626 34.6371 38.1699 35.9217 38.1699 35.9217L38.1687 35.923Z" fill="#6B7B3E"/>
<path d="M38.168 35.923C37.7761 34.9136 37.7092 34.022 37.7092 34.022L35.8281 34.4771L38.168 35.923Z" fill="#4B5B19"/>
<path d="M39.6062 33.805C39.6062 33.805 38.2608 33.6401 37.8925 33.7145L37.5243 33.7877L37.2676 32.3592C37.2676 32.3592 38.4915 32.4596 38.4952 32.4894C38.5002 32.5191 39.6062 33.8038 39.6062 33.8038V33.805Z" fill="#6B7B3E"/>
<path d="M39.6055 33.805C39.2137 32.7957 39.1467 31.9041 39.1467 31.9041L37.2656 32.3592L39.6055 33.805Z" fill="#4B5B19"/>
<path d="M39.155 35.3538C39.155 35.3538 37.8097 35.1889 37.4414 35.2633L37.0731 35.3364L36.8164 33.908C36.8164 33.908 38.0403 34.0084 38.044 34.0382C38.0477 34.0679 39.155 35.3526 39.155 35.3526V35.3538Z" fill="#6B7B3E"/>
<path d="M39.1543 35.3538C38.7625 34.3444 38.6955 33.4529 38.6955 33.4529L36.8145 33.908L39.1543 35.3538Z" fill="#4B5B19"/>
<path d="M40.7605 32.2042C40.7605 32.2042 39.4151 32.0393 39.0468 32.1137L38.6786 32.1868L38.4219 30.7584C38.4219 30.7584 39.6457 30.8588 39.6495 30.8886C39.6544 30.9183 40.7605 32.203 40.7605 32.203V32.2042Z" fill="#6B7B3E"/>
<path d="M40.7598 32.2042C40.3679 31.1949 40.301 30.3033 40.301 30.3033L38.4199 30.7584L40.7598 32.2042Z" fill="#4B5B19"/>
<path d="M41.7722 30.498C41.7722 30.498 40.4268 30.3331 40.0586 30.4075L39.6903 30.4806L39.4336 29.0521C39.4336 29.0521 40.6575 29.1526 40.6612 29.1823C40.6649 29.2121 41.7722 30.4967 41.7722 30.4967V30.498Z" fill="#6B7B3E"/>
<path d="M41.7715 30.498C41.3797 29.4886 41.3127 28.597 41.3127 28.597L39.4316 29.0521L41.7715 30.498Z" fill="#4B5B19"/>
<path d="M31.161 43.3369C31.161 43.3369 29.9235 42.7851 29.549 42.7479L29.1758 42.7107L29.3482 41.2698C29.3482 41.2698 30.4877 41.7249 30.484 41.7547C30.479 41.7844 31.161 43.3381 31.161 43.3381V43.3369Z" fill="#6B7B3E"/>
<path d="M31.1605 43.3369C31.0824 42.2581 31.2796 41.3851 31.2796 41.3851L29.3477 41.2698L31.1605 43.3369Z" fill="#4B5B19"/>
<path d="M26.0958 45.4337C26.0958 45.4337 25.3209 44.3215 25.0208 44.0958L24.7207 43.8701L25.6135 42.7268C25.6135 42.7268 26.355 43.7052 26.3352 43.7287C26.3153 43.7523 26.0971 45.4337 26.0971 45.4337H26.0958Z" fill="#6B7B3E"/>
<path d="M26.0956 45.4337C26.5867 44.469 27.2067 43.8242 27.2067 43.8242L25.6133 42.7268L26.0969 45.4337H26.0956Z" fill="#4B5B19"/>
<path d="M22.4045 46.0736C22.4045 46.0736 21.6294 44.9613 21.3294 44.7357L21.0293 44.51L21.9221 43.3667C21.9221 43.3667 22.6636 44.3451 22.6438 44.3686C22.6239 44.3922 22.4057 46.0736 22.4057 46.0736H22.4045Z" fill="#6B7B3E"/>
<path d="M22.4043 46.0736C22.8953 45.1089 23.5153 44.4641 23.5153 44.4641L21.9219 43.3667L22.4043 46.0736Z" fill="#4B5B19"/>
<path d="M29.3895 44.3041C29.3895 44.3041 28.152 43.7523 27.7775 43.7151L27.4043 43.6779L27.5767 42.237C27.5767 42.237 28.7162 42.6921 28.7125 42.7218C28.7075 42.7516 29.3895 44.3053 29.3895 44.3053V44.3041Z" fill="#6B7B3E"/>
<path d="M29.389 44.3041C29.3109 43.2253 29.5081 42.3523 29.5081 42.3523L27.5762 42.237L29.389 44.3041Z" fill="#4B5B19"/>
<path d="M27.8974 44.9836C27.8974 44.9836 26.6598 44.4318 26.2854 44.3946L25.9121 44.3574L26.0845 42.9165C26.0845 42.9165 27.2253 43.3716 27.2203 43.4013C27.2154 43.4311 27.8974 44.9848 27.8974 44.9848V44.9836Z" fill="#6B7B3E"/>
<path d="M27.8968 44.9836C27.8187 43.9048 28.0159 43.0318 28.0159 43.0318L26.084 42.9153L27.8968 44.9824V44.9836Z" fill="#4B5B19"/>
<path d="M27.8788 48.6155C27.8788 48.6155 27.2477 47.4165 26.9773 47.1548L26.707 46.8944L27.735 45.8702C27.735 45.8702 28.3488 46.9329 28.3265 46.9539C28.3042 46.975 27.8788 48.6168 27.8788 48.6168V48.6155Z" fill="#6B7B3E"/>
<path d="M27.8782 48.6156C28.4846 47.719 29.1802 47.1561 29.1802 47.1561L27.7344 45.869L27.8782 48.6156Z" fill="#4B5B19"/>
<path d="M29.8888 48.4941C29.8888 48.4941 28.9551 47.512 28.624 47.3347L28.293 47.1573L29.0022 45.8913C29.0022 45.8913 29.8826 46.7469 29.8665 46.7729C29.8504 46.799 29.8888 48.4941 29.8888 48.4941Z" fill="#6B7B3E"/>
<path d="M29.8885 48.4941C30.2283 47.4661 30.7429 46.7357 30.7429 46.7357L29.002 45.8913L29.8885 48.4941Z" fill="#4B5B19"/>
<path d="M30.9299 47.2801C30.9299 47.2801 29.9961 46.2981 29.6651 46.1207L29.334 45.9434L30.0433 44.6774C30.0433 44.6774 30.9237 45.533 30.9075 45.559C30.8914 45.585 30.9286 47.2801 30.9286 47.2801H30.9299Z" fill="#6B7B3E"/>
<path d="M30.9296 47.2801C31.2693 46.2522 31.7839 45.5218 31.7839 45.5218L30.043 44.6774L30.9296 47.2801Z" fill="#4B5B19"/>
<path d="M34.3537 45.802C34.3537 45.802 33.42 44.82 33.0889 44.6426L32.7578 44.4653L33.4671 43.1993C33.4671 43.1993 34.3475 44.0549 34.3314 44.0809C34.3152 44.107 34.3537 45.802 34.3537 45.802Z" fill="#6B7B3E"/>
<path d="M34.3534 45.802C34.6931 44.7741 35.2078 44.0437 35.2078 44.0437L33.4668 43.1993L34.3534 45.802Z" fill="#4B5B19"/>
<path d="M32.34 46.8064C32.34 46.8064 31.4063 45.8243 31.0752 45.647L30.7441 45.4697L31.4534 44.2037C31.4534 44.2037 32.3338 45.0593 32.3177 45.0853C32.3016 45.1114 32.34 46.8064 32.34 46.8064Z" fill="#6B7B3E"/>
<path d="M32.3397 46.8064C32.6795 45.7785 33.1941 45.0481 33.1941 45.0481L31.4531 44.2037L32.3397 46.8064Z" fill="#4B5B19"/>
<path d="M30.9553 45.3209C30.9553 45.3209 30.0216 44.3388 29.6905 44.1615L29.3594 43.9842L30.0687 42.7181C30.0687 42.7181 30.949 43.5738 30.9329 43.5998C30.9168 43.6258 30.9553 45.3209 30.9553 45.3209Z" fill="#6B7B3E"/>
<path d="M30.955 45.3209C31.2947 44.2929 31.8093 43.5626 31.8093 43.5626L30.0684 42.7181L30.955 45.3209Z" fill="#4B5B19"/>
<path d="M29.3732 46.3873C29.3732 46.3873 28.4395 45.4052 28.1084 45.2279L27.7773 45.0506L28.4866 43.7845C28.4866 43.7845 29.367 44.6401 29.3509 44.6662C29.3348 44.6922 29.3732 46.3885 29.3732 46.3885V46.3873Z" fill="#6B7B3E"/>
<path d="M29.3729 46.3873C29.7127 45.3593 30.2273 44.629 30.2273 44.629L28.4863 43.7845L29.3729 46.3873Z" fill="#4B5B19"/>
<path d="M27.76 47.104C27.76 47.104 26.8262 46.122 26.4952 45.9446L26.1641 45.7673L26.8733 44.5013C26.8733 44.5013 27.7538 45.3569 27.7376 45.3829C27.7215 45.409 27.76 47.104 27.76 47.104Z" fill="#6B7B3E"/>
<path d="M27.7597 47.104C28.0994 46.0761 28.614 45.3457 28.614 45.3457L26.873 44.5013L27.7597 47.104Z" fill="#4B5B19"/>
<path d="M25.5365 47.6037C25.5365 47.6037 24.8433 46.4394 24.5594 46.1926L24.2754 45.9458L25.2476 44.8683C25.2476 44.8683 25.9172 45.8975 25.8961 45.9186C25.875 45.9409 25.5365 47.6025 25.5365 47.6025V47.6037Z" fill="#6B7B3E"/>
<path d="M25.537 47.6037C26.0962 46.6774 26.7596 46.0785 26.7596 46.0785L25.248 44.8695L25.5357 47.6037H25.537Z" fill="#4B5B19"/>
<path d="M24.0131 47.4859C24.0131 47.4859 23.3199 46.3216 23.0359 46.0748L22.752 45.8281L23.7241 44.7505C23.7241 44.7505 24.3937 45.7797 24.3726 45.8008C24.3516 45.8231 24.0131 47.4847 24.0131 47.4847V47.4859Z" fill="#6B7B3E"/>
<path d="M24.0135 47.4859C24.5728 46.5584 25.2362 45.9607 25.2362 45.9607L23.7246 44.7517L24.0123 47.4859H24.0135Z" fill="#4B5B19"/>
<path d="M33.4138 14.7462C33.4138 14.7462 34.1132 15.7841 34.3872 15.9961L34.6613 16.2082L33.8205 17.251C33.8205 17.251 33.1509 16.3371 33.1683 16.3161C33.1869 16.295 33.4126 14.7462 33.4126 14.7462H33.4138Z" fill="#6B7B3E"/>
<path d="M33.413 14.7462C32.9468 15.6291 32.3652 16.2156 32.3652 16.2156L33.821 17.251L33.4143 14.7462H33.413Z" fill="#4B5B19"/>
<path d="M27.334 16.3421C27.334 16.3421 28.3371 17.0898 28.667 17.1989L28.9956 17.3081L28.5492 18.5704C28.5492 18.5704 27.6142 17.9305 27.6241 17.9045C27.634 17.8785 27.334 16.3421 27.334 16.3421Z" fill="#6B7B3E"/>
<path d="M27.3342 16.3421C27.1867 17.3304 26.832 18.0756 26.832 18.0756L28.5482 18.5704L27.3342 16.3421Z" fill="#4B5B19"/>
<path d="M29.1758 15.5411C29.1758 15.5411 30.1789 16.2888 30.5088 16.3979L30.8374 16.507L30.391 17.7694C30.391 17.7694 29.456 17.1295 29.466 17.1035C29.4759 17.0774 29.1758 15.5411 29.1758 15.5411Z" fill="#6B7B3E"/>
<path d="M29.176 15.5411C29.0285 16.5294 28.6738 17.2746 28.6738 17.2746L30.39 17.7694L29.176 15.5411Z" fill="#4B5B19"/>
<path d="M31.2617 14.9806C31.2617 14.9806 32.1347 15.8771 32.4422 16.0371L32.7497 16.197L32.1099 17.3738C32.1099 17.3738 31.2878 16.5951 31.3014 16.5703C31.3163 16.5467 31.2617 14.9818 31.2617 14.9818V14.9806Z" fill="#6B7B3E"/>
<path d="M31.261 14.9806C30.9597 15.9329 30.4922 16.6137 30.4922 16.6137L32.1092 17.3726L31.261 14.9806Z" fill="#4B5B19"/>
<path d="M20.4961 21.1632C20.4961 21.1632 21.7039 21.4906 22.0498 21.472L22.3958 21.4534L22.4429 22.7913C22.4429 22.7913 21.3381 22.5384 21.3381 22.5111C21.3381 22.4838 20.4961 21.1632 20.4961 21.1632Z" fill="#6B7B3E"/>
<path d="M20.4961 21.1632C20.7205 22.1366 20.6647 22.96 20.6647 22.96L22.4429 22.7913L20.4961 21.1632Z" fill="#4B5B19"/>
<path d="M21.7871 19.8997C21.7871 19.8997 22.9949 20.227 23.3408 20.2084L23.6868 20.1898L23.7339 21.5278C23.7339 21.5278 22.6291 21.2748 22.6291 21.2475C22.6291 21.2203 21.7871 19.8997 21.7871 19.8997Z" fill="#6B7B3E"/>
<path d="M21.7871 19.8997C22.0115 20.8731 21.9558 21.6964 21.9558 21.6964L23.7339 21.5278L21.7871 19.8997Z" fill="#4B5B19"/>
<path d="M23.4466 18.5034C23.4466 18.5034 24.5936 19.0044 24.9383 19.0366L25.283 19.0689L25.133 20.3994C25.133 20.3994 24.0777 19.9877 24.0814 19.9604C24.0851 19.9331 23.4453 18.5034 23.4453 18.5034H23.4466Z" fill="#6B7B3E"/>
<path d="M23.4463 18.5034C23.5257 19.4991 23.3496 20.3051 23.3496 20.3051L25.134 20.3994L23.4463 18.5034Z" fill="#4B5B19"/>
<path d="M25.3301 17.3899C25.3301 17.3899 26.425 17.995 26.766 18.0595L27.107 18.124L26.8342 19.4347C26.8342 19.4347 25.8211 18.9263 25.8286 18.899C25.8348 18.8717 25.3301 17.3899 25.3301 17.3899Z" fill="#6B7B3E"/>
<path d="M25.3293 17.3899C25.3156 18.3893 25.0664 19.1755 25.0664 19.1755L26.8334 19.4347L25.3293 17.3899Z" fill="#4B5B19"/>
<path d="M19.2324 22.6301C19.2324 22.6301 20.4402 22.9575 20.7861 22.9389L21.1321 22.9203L21.1792 24.2582C21.1792 24.2582 20.0744 24.0053 20.0744 23.978C20.0744 23.9507 19.2324 22.6301 19.2324 22.6301Z" fill="#6B7B3E"/>
<path d="M19.2324 22.6301C19.4569 23.6035 19.401 24.4269 19.401 24.4269L21.1792 24.2582L19.2324 22.6301Z" fill="#4B5B19"/>
<path d="M17.8027 24.2037C17.8027 24.2037 19.0527 24.2434 19.3862 24.1455L19.7185 24.0475L20.0732 25.3383C20.0732 25.3383 18.9398 25.347 18.9336 25.3197C18.9274 25.2924 17.8027 24.2025 17.8027 24.2025V24.2037Z" fill="#6B7B3E"/>
<path d="M17.8027 24.2037C18.2454 25.099 18.3818 25.9137 18.3818 25.9137L20.0732 25.3396L17.8027 24.205V24.2037Z" fill="#4B5B19"/>
<path d="M16.627 26.36C16.627 26.36 17.8471 26.0823 18.1435 25.9037L18.4411 25.7252L19.1107 26.8846C19.1107 26.8846 18.017 27.1797 18.0034 27.1549C17.9897 27.1301 16.627 26.36 16.627 26.36Z" fill="#6B7B3E"/>
<path d="M16.627 26.36C17.2817 27.114 17.619 27.8679 17.619 27.8679L19.1107 26.8846L16.627 26.36Z" fill="#4B5B19"/>
<path d="M16.2363 27.8196C16.2363 27.8196 17.4838 27.7216 17.8037 27.5864L18.1236 27.4525L18.6184 28.6975C18.6184 28.6975 17.4937 28.8314 17.4837 28.8054C17.4738 28.7793 16.2363 27.8196 16.2363 27.8196Z" fill="#6B7B3E"/>
<path d="M16.2363 27.8196C16.7757 28.6603 17.0002 29.4551 17.0002 29.4551L18.6184 28.6975L16.2363 27.8196Z" fill="#4B5B19"/>
<path d="M15.459 29.8891C15.459 29.8891 16.6494 29.5059 16.9296 29.3013L17.2098 29.0967L17.9786 30.1929C17.9786 30.1929 16.9147 30.5835 16.8998 30.5599C16.885 30.5364 15.459 29.8891 15.459 29.8891Z" fill="#6B7B3E"/>
<path d="M15.459 29.8891C16.1782 30.5823 16.5799 31.3039 16.5799 31.3039L17.9786 30.1929L15.459 29.8891Z" fill="#4B5B19"/>
<path d="M14.9785 32.0356C14.9785 32.0356 16.0338 31.3635 16.2532 31.0944L16.4727 30.8253L17.4932 31.6921C17.4932 31.6921 16.5632 32.3381 16.5422 32.3195C16.5211 32.3009 14.9785 32.0343 14.9785 32.0343V32.0356Z" fill="#6B7B3E"/>
<path d="M14.9785 32.0356C15.849 32.5254 16.4207 33.1206 16.4207 33.1206L17.4932 31.6921L14.9785 32.0343V32.0356Z" fill="#4B5B19"/>
<path d="M14.7129 33.7467C14.7129 33.7467 15.8797 33.2954 16.1475 33.0747L16.4154 32.8539L17.2462 33.9042C17.2462 33.9042 16.2071 34.3556 16.1897 34.332C16.1736 34.3097 14.7129 33.7455 14.7129 33.7455V33.7467Z" fill="#6B7B3E"/>
<path d="M14.7129 33.7467C15.4705 34.3977 15.9132 35.0946 15.9132 35.0946L17.2462 33.9054L14.7129 33.7467Z" fill="#4B5B19"/>
<path d="M14.4941 35.8609C14.4941 35.8609 15.5246 35.1517 15.7354 34.8764L15.9449 34.5999L16.9952 35.4307C16.9952 35.4307 16.0875 36.1089 16.0665 36.0916C16.0454 36.073 14.4941 35.8622 14.4941 35.8622V35.8609Z" fill="#6B7B3E"/>
<path d="M14.4941 35.8609C15.382 36.3197 15.9735 36.8951 15.9735 36.8951L16.9952 35.4307L14.4941 35.8609Z" fill="#4B5B19"/>
<path d="M14.8255 38.2939C14.8255 38.2939 15.6439 37.3477 15.7765 37.0278L15.9092 36.7079L17.1356 37.246C17.1356 37.246 16.4288 38.1314 16.404 38.1202C16.3792 38.1078 14.8242 38.2951 14.8242 38.2951L14.8255 38.2939Z" fill="#6B7B3E"/>
<path d="M14.8262 38.2938C15.8008 38.5133 16.5188 38.92 16.5188 38.92L17.1375 37.2448L14.8262 38.2938Z" fill="#4B5B19"/>
<path d="M15.377 39.7012C15.377 39.7012 16.3231 38.8828 16.5016 38.5852L16.6802 38.2876L17.8161 38.9969C17.8161 38.9969 16.989 39.7719 16.9654 39.7558C16.9418 39.7396 15.377 39.7012 15.377 39.7012Z" fill="#6B7B3E"/>
<path d="M15.377 39.7012C16.3094 40.0583 16.9617 40.5655 16.9617 40.5655L17.8161 38.9969L15.377 39.7012Z" fill="#4B5B19"/>
<path d="M15.9759 41.8278C15.9759 41.8278 16.7075 40.8135 16.8129 40.4825L16.917 40.1514L18.1855 40.5792C18.1855 40.5792 17.5593 41.524 17.5333 41.5141C17.5073 41.5042 15.9746 41.8278 15.9746 41.8278H15.9759Z" fill="#6B7B3E"/>
<path d="M15.9766 41.8279C16.9661 41.9605 17.7175 42.3028 17.7175 42.3028L18.1863 40.5792L15.9766 41.8279Z" fill="#4B5B19"/>
<path d="M17.0813 43.8651C17.0813 43.8651 17.5327 42.6983 17.55 42.3523L17.5674 42.0063L18.9029 42.0993C18.9029 42.0993 18.5358 43.1719 18.5086 43.1682C18.48 43.1657 17.0801 43.8651 17.0801 43.8651H17.0813Z" fill="#6B7B3E"/>
<path d="M17.0813 43.8651C18.0733 43.7436 18.8855 43.885 18.8855 43.885L18.9029 42.0994L17.0801 43.8651H17.0813Z" fill="#4B5B19"/>
<path d="M34.4275 15.5659C34.4275 15.5659 35.1268 16.6037 35.4009 16.8158L35.6749 17.0278L34.8342 18.0707C34.8342 18.0707 34.1646 17.1568 34.182 17.1357C34.2006 17.1146 34.4262 15.5659 34.4262 15.5659H34.4275Z" fill="#6B7B3E"/>
<path d="M34.4267 15.5659C33.9592 16.4487 33.3789 17.0353 33.3789 17.0353L34.8347 18.0707L34.4279 15.5659H34.4267Z" fill="#4B5B19"/>
<path d="M28.3477 17.1617C28.3477 17.1617 29.3508 17.9095 29.6807 18.0186L30.0092 18.1277L29.5629 19.39C29.5629 19.39 28.6279 18.7502 28.6378 18.7241C28.6477 18.6981 28.3477 17.1617 28.3477 17.1617Z" fill="#6B7B3E"/>
<path d="M28.3479 17.1617C28.2003 18.15 27.8457 18.8953 27.8457 18.8953L29.5619 19.39L28.3479 17.1617Z" fill="#4B5B19"/>
<path d="M30.1895 16.3607C30.1895 16.3607 31.1926 17.1084 31.5225 17.2176L31.8511 17.3267L31.4047 18.589C31.4047 18.589 30.4697 17.9492 30.4796 17.9231C30.4895 17.8971 30.1895 16.3607 30.1895 16.3607Z" fill="#6B7B3E"/>
<path d="M30.1897 16.3607C30.0421 17.349 29.6875 18.0942 29.6875 18.0942L31.4036 18.589L30.1897 16.3607Z" fill="#4B5B19"/>
<path d="M32.2754 15.8015C32.2754 15.8015 33.1484 16.698 33.4559 16.8579L33.7634 17.0179L33.1236 18.1947C33.1236 18.1947 32.3014 17.4159 32.3151 17.3911C32.3287 17.3663 32.2754 15.8027 32.2754 15.8027V15.8015Z" fill="#6B7B3E"/>
<path d="M32.2747 15.8015C31.9733 16.7538 31.5059 17.4345 31.5059 17.4345L33.1228 18.1934L32.2747 15.8015Z" fill="#4B5B19"/>
<path d="M21.5098 21.9828C21.5098 21.9828 22.7175 22.3102 23.0635 22.2916L23.4095 22.273L23.4566 23.611C23.4566 23.611 22.3517 23.358 22.3517 23.3307C22.3517 23.3034 21.5098 21.9828 21.5098 21.9828Z" fill="#6B7B3E"/>
<path d="M21.5098 21.9828C21.7342 22.9562 21.6784 23.7796 21.6784 23.7796L23.4566 23.611L21.5098 21.9828Z" fill="#4B5B19"/>
<path d="M22.8008 20.7193C22.8008 20.7193 24.0085 21.0467 24.3545 21.0281L24.7005 21.0095L24.7476 22.3474C24.7476 22.3474 23.6427 22.0945 23.6427 22.0672C23.6427 22.0399 22.8008 20.7193 22.8008 20.7193Z" fill="#6B7B3E"/>
<path d="M22.8008 20.7193C23.0252 21.6927 22.9694 22.5161 22.9694 22.5161L24.7476 22.3474L22.8008 20.7193Z" fill="#4B5B19"/>
<path d="M24.4602 19.3231C24.4602 19.3231 25.606 19.824 25.9519 19.8562L26.2967 19.8885L26.1466 21.219C26.1466 21.219 25.0914 20.8073 25.0951 20.7801C25.0988 20.7528 24.459 19.3231 24.459 19.3231H24.4602Z" fill="#6B7B3E"/>
<path d="M24.46 19.3231C24.5394 20.3188 24.3633 21.1248 24.3633 21.1248L26.1477 21.219L24.46 19.3231Z" fill="#4B5B19"/>
<path d="M26.3418 18.2108C26.3418 18.2108 27.4367 18.8159 27.7777 18.8804L28.1187 18.9449L27.8459 20.2556C27.8459 20.2556 26.8328 19.7472 26.8402 19.7199C26.8464 19.6926 26.343 18.2108 26.343 18.2108H26.3418Z" fill="#6B7B3E"/>
<path d="M26.3423 18.2108C26.3286 19.2103 26.0781 19.9964 26.0781 19.9964L27.8451 20.2556L26.341 18.2108H26.3423Z" fill="#4B5B19"/>
<path d="M20.2441 23.451C20.2441 23.451 21.4519 23.7784 21.7979 23.7598L22.1438 23.7412L22.1909 25.0791C22.1909 25.0791 21.0861 24.8261 21.0861 24.7989C21.0861 24.7716 20.2441 23.451 20.2441 23.451Z" fill="#6B7B3E"/>
<path d="M20.2441 23.451C20.4686 24.4244 20.4128 25.2478 20.4128 25.2478L22.1909 25.0791L20.2441 23.451Z" fill="#4B5B19"/>
<path d="M18.8164 25.0246C18.8164 25.0246 20.0663 25.0643 20.3999 24.9663L20.7322 24.8683L21.0869 26.1592C21.0869 26.1592 19.9535 26.1679 19.9473 26.1406C19.9411 26.1133 18.8164 25.0233 18.8164 25.0233V25.0246Z" fill="#6B7B3E"/>
<path d="M18.8164 25.0246C19.2591 25.9199 19.3955 26.7346 19.3955 26.7346L21.0869 26.1604L18.8164 25.0258V25.0246Z" fill="#4B5B19"/>
<path d="M19.1094 26.4841C19.1094 26.4841 20.3593 26.5237 20.6929 26.4258L21.0252 26.3278L21.3798 27.6187C21.3798 27.6187 20.2464 27.6273 20.2402 27.6001C20.234 27.5728 19.1094 26.4828 19.1094 26.4828V26.4841Z" fill="#6B7B3E"/>
<path d="M19.1094 26.4841C19.5533 27.3793 19.6884 28.194 19.6884 28.194L21.3798 27.6199L19.1094 26.4853V26.4841Z" fill="#4B5B19"/>
<path d="M20.6523 25.0754C20.6523 25.0754 21.9023 25.1151 22.2358 25.0171L22.5681 24.9192L22.9228 26.21C22.9228 26.21 21.7894 26.2187 21.7832 26.1914C21.777 26.1641 20.6523 25.0742 20.6523 25.0742V25.0754Z" fill="#6B7B3E"/>
<path d="M20.6523 25.0754C21.0963 25.9707 21.2314 26.7854 21.2314 26.7854L22.9228 26.2113L20.6523 25.0767V25.0754Z" fill="#4B5B19"/>
<path d="M22.0859 23.4882C22.0859 23.4882 23.3359 23.5279 23.6694 23.4299L24.0017 23.332L24.3564 24.6241C24.3564 24.6241 23.223 24.6327 23.2168 24.6055C23.2106 24.5782 22.0859 23.4882 22.0859 23.4882Z" fill="#6B7B3E"/>
<path d="M22.0859 23.4882C22.5299 24.3835 22.665 25.1982 22.665 25.1982L24.3564 24.6241L22.0859 23.4895V23.4882Z" fill="#4B5B19"/>
<path d="M24.5117 21.405C24.5117 21.405 25.6835 21.8428 26.0307 21.8564L26.3767 21.87L26.2998 23.2068C26.2998 23.2068 25.2235 22.8534 25.226 22.8248C25.2284 22.7963 24.5117 21.405 24.5117 21.405Z" fill="#6B7B3E"/>
<path d="M24.5117 21.405C24.6456 22.3945 24.513 23.2105 24.513 23.2105L26.2998 23.2068L24.5117 21.405Z" fill="#4B5B19"/>
<path d="M26.1738 19.8104C26.1738 19.8104 27.3456 20.2481 27.6928 20.2617L28.0388 20.2754L27.9619 21.6121C27.9619 21.6121 26.8856 21.2587 26.8881 21.2302C26.8905 21.2017 26.1738 19.8104 26.1738 19.8104Z" fill="#6B7B3E"/>
<path d="M26.1738 19.8104C26.3077 20.7999 26.1751 21.6158 26.1751 21.6158L27.9619 21.6121L26.1738 19.8104Z" fill="#4B5B19"/>
<path d="M17.6406 27.181C17.6406 27.181 18.8608 26.9032 19.1571 26.7246L19.4548 26.5461L20.1243 27.7055C20.1243 27.7055 19.0307 28.0006 19.017 27.9758C19.0034 27.951 17.6406 27.181 17.6406 27.181Z" fill="#6B7B3E"/>
<path d="M17.6406 27.181C18.2953 27.9349 18.6326 28.6888 18.6326 28.6888L20.1243 27.7055L17.6406 27.181Z" fill="#4B5B19"/>
<path d="M17.25 28.6404C17.25 28.6404 18.4974 28.5425 18.8173 28.4073L19.1373 28.2734L19.632 29.5183C19.632 29.5183 18.5074 29.6523 18.4974 29.6262C18.4875 29.6002 17.25 28.6404 17.25 28.6404Z" fill="#6B7B3E"/>
<path d="M17.25 28.6404C17.7894 29.4812 18.0138 30.276 18.0138 30.276L19.632 29.5184L17.25 28.6404Z" fill="#4B5B19"/>
<path d="M16.4727 30.7087C16.4727 30.7087 17.663 30.3256 17.9433 30.121L18.2235 29.9164L18.9923 31.0126C18.9923 31.0126 17.9284 31.4031 17.9135 31.3796C17.8986 31.356 16.4727 30.7087 16.4727 30.7087Z" fill="#6B7B3E"/>
<path d="M16.4727 30.7087C17.1919 31.4019 17.5936 32.1236 17.5936 32.1236L18.9923 31.0125L16.4727 30.7087Z" fill="#4B5B19"/>
<path d="M15.9922 32.8564C15.9922 32.8564 17.0474 32.1843 17.2669 31.9152L17.4864 31.6462L18.5069 32.5129C18.5069 32.5129 17.5769 33.159 17.5558 33.1404C17.5348 33.1218 15.9922 32.8552 15.9922 32.8552V32.8564Z" fill="#6B7B3E"/>
<path d="M15.9922 32.8564C16.8627 33.3462 17.4343 33.9414 17.4343 33.9414L18.5069 32.5129L15.9922 32.8552V32.8564Z" fill="#4B5B19"/>
<path d="M15.7266 34.5664C15.7266 34.5664 16.8934 34.115 17.1613 33.8943L17.4291 33.6736L18.2599 34.7239C18.2599 34.7239 17.2208 35.1752 17.2034 35.1517C17.1873 35.1293 15.7266 34.5651 15.7266 34.5651V34.5664Z" fill="#6B7B3E"/>
<path d="M15.7266 34.5664C16.4842 35.2174 16.9269 35.9143 16.9269 35.9143L18.2599 34.7251L15.7266 34.5664Z" fill="#4B5B19"/>
<path d="M15.5098 36.6806C15.5098 36.6806 16.5402 35.9713 16.751 35.696L16.9606 35.4195L18.0108 36.2503C18.0108 36.2503 17.1032 36.9286 17.0821 36.9112C17.061 36.8926 15.5098 36.6818 15.5098 36.6818V36.6806Z" fill="#6B7B3E"/>
<path d="M15.5098 36.6806C16.3976 37.1394 16.9891 37.7147 16.9891 37.7147L18.0108 36.2503L15.5098 36.6806Z" fill="#4B5B19"/>
<path d="M15.8391 39.1147C15.8391 39.1147 16.6576 38.1686 16.7902 37.8487L16.9229 37.5287L18.1493 38.0669C18.1493 38.0669 17.4424 38.9523 17.4176 38.9411C17.3928 38.9287 15.8379 39.116 15.8379 39.116L15.8391 39.1147Z" fill="#6B7B3E"/>
<path d="M15.8398 39.1147C16.8145 39.3342 17.5325 39.7409 17.5325 39.7409L18.1512 38.0657L15.8398 39.1147Z" fill="#4B5B19"/>
<path d="M16.3906 40.5221C16.3906 40.5221 17.3367 39.7037 17.5153 39.4061L17.6939 39.1085L18.8297 39.8178C18.8297 39.8178 18.0026 40.5928 17.979 40.5767C17.9555 40.5606 16.3906 40.5221 16.3906 40.5221Z" fill="#6B7B3E"/>
<path d="M16.3906 40.5221C17.3231 40.8792 17.9753 41.3864 17.9753 41.3864L18.8297 39.8178L16.3906 40.5221Z" fill="#4B5B19"/>
<path d="M16.9895 42.6487C16.9895 42.6487 17.7211 41.6344 17.8265 41.3033L17.9307 40.9722L19.1992 41.4C19.1992 41.4 18.573 42.3449 18.547 42.335C18.5209 42.3251 16.9883 42.6487 16.9883 42.6487H16.9895Z" fill="#6B7B3E"/>
<path d="M16.9902 42.6487C17.9798 42.7814 18.7312 43.1236 18.7312 43.1236L19.1999 41.4L16.9902 42.6487Z" fill="#4B5B19"/>
<path d="M18.095 44.686C18.095 44.686 18.5463 43.5192 18.5637 43.1732L18.5811 42.8273L19.9165 42.9203C19.9165 42.9203 19.5495 43.9929 19.5222 43.9892C19.4937 43.9867 18.0938 44.686 18.0938 44.686H18.095Z" fill="#6B7B3E"/>
<path d="M18.095 44.686C19.087 44.5645 19.8992 44.7059 19.8992 44.7059L19.9165 42.9203L18.0938 44.686H18.095Z" fill="#4B5B19"/>
<path d="M19.0293 28.4135C19.0293 28.4135 20.278 28.4966 20.6128 28.4098L20.9488 28.323L21.2588 29.6262C21.2588 29.6262 20.1267 29.5965 20.1205 29.568C20.1155 29.5407 19.0293 28.4123 19.0293 28.4123V28.4135Z" fill="#6B7B3E"/>
<path d="M19.0293 28.4135C19.441 29.3237 19.5489 30.1421 19.5489 30.1421L21.2588 29.6262L19.0293 28.4135Z" fill="#4B5B19"/>
<path d="M19.6875 27.4128C19.6875 27.4128 20.9362 27.4959 21.271 27.4091L21.607 27.3223L21.917 28.6256C21.917 28.6256 20.7849 28.5958 20.7787 28.5673C20.7737 28.54 19.6875 27.4116 19.6875 27.4116V27.4128Z" fill="#6B7B3E"/>
<path d="M19.6875 27.4128C20.0992 28.323 20.2071 29.1414 20.2071 29.1414L21.917 28.6256L19.6875 27.4128Z" fill="#4B5B19"/>
<path d="M17.9141 30.4843C17.9141 30.4843 19.1627 30.5674 19.4975 30.4806L19.8336 30.3938L20.1436 31.697C20.1436 31.697 19.0115 31.6673 19.0053 31.6387C19.0003 31.6115 17.9141 30.4831 17.9141 30.4831V30.4843Z" fill="#6B7B3E"/>
<path d="M17.9141 30.4843C18.3257 31.3945 18.4336 32.2129 18.4336 32.2129L20.1436 31.697L17.9141 30.4843Z" fill="#4B5B19"/>
<path d="M45.3203 21.4522C45.3203 21.4522 44.2663 22.3041 44.0617 22.619L43.8584 22.9352L42.6543 22.1255C42.6543 22.1255 43.5781 21.317 43.6017 21.3344C43.6265 21.3517 45.3191 21.4509 45.3191 21.4509L45.3203 21.4522Z" fill="#6B7B3E"/>
<path d="M45.3203 21.4522C44.3233 21.0306 43.6364 20.4589 43.6364 20.4589L42.6543 22.1267L45.3203 21.4522Z" fill="#4B5B19"/>
<path d="M45.957 23.3667C45.957 23.3667 44.903 24.2186 44.6984 24.5336L44.4951 24.8498L43.291 24.0401C43.291 24.0401 44.2148 23.2316 44.2396 23.2489C44.2644 23.2663 45.957 23.3655 45.957 23.3655V23.3667Z" fill="#6B7B3E"/>
<path d="M45.957 23.3667C44.9601 22.9451 44.2731 22.3735 44.2731 22.3735L43.291 24.0413L45.957 23.3667Z" fill="#4B5B19"/>
<path d="M44.667 24.9403C44.667 24.9403 43.437 25.5082 43.1617 25.7649L42.8877 26.0216L41.918 24.9428C41.918 24.9428 43.0116 24.3848 43.0302 24.4083C43.0501 24.4319 44.667 24.9415 44.667 24.9415V24.9403Z" fill="#6B7B3E"/>
<path d="M44.6663 24.9403C43.8033 24.288 43.2763 23.5651 43.2763 23.5651L41.916 24.9415H44.6663V24.9403Z" fill="#4B5B19"/>
<path d="M43.8565 23.5465C43.8565 23.5465 42.7963 24.3909 42.5904 24.7059L42.3846 25.0209L41.1855 24.2037C41.1855 24.2037 42.1143 23.4014 42.1391 23.4188C42.1639 23.4374 43.8565 23.5465 43.8565 23.5465Z" fill="#6B7B3E"/>
<path d="M43.8565 23.5465C42.862 23.1187 42.1788 22.5421 42.1788 22.5421L41.1855 24.2037L43.8553 23.5465H43.8565Z" fill="#4B5B19"/>
<path d="M43.7518 20.4453C43.7518 20.4453 42.7089 21.312 42.5105 21.6295L42.3109 21.9481L41.0957 21.1558C41.0957 21.1558 42.0071 20.3349 42.0331 20.3523C42.0579 20.3696 43.753 20.4453 43.753 20.4453H43.7518Z" fill="#6B7B3E"/>
<path d="M43.7518 20.4453C42.7486 20.0385 42.0542 19.4756 42.0542 19.4756L41.0957 21.157L43.7518 20.4465V20.4453Z" fill="#4B5B19"/>
<path d="M43.5323 17.3452C43.5323 17.3452 42.8751 18.5307 42.8056 18.9002L42.7362 19.2697L41.3164 18.9733C41.3164 18.9733 41.8682 17.8772 41.8967 17.8834C41.9265 17.8908 43.5323 17.3452 43.5323 17.3452Z" fill="#6B7B3E"/>
<path d="M43.5316 17.3452C42.449 17.3303 41.5971 17.0576 41.5971 17.0576L41.3145 18.9721L43.5316 17.3452Z" fill="#4B5B19"/>
<path d="M41.7225 15.7593C41.7225 15.7593 41.8514 17.1084 42.0015 17.4531L42.1528 17.7966L40.8136 18.3546C40.8136 18.3546 40.6486 17.1381 40.6771 17.127C40.7057 17.1158 41.7225 15.7593 41.7225 15.7593Z" fill="#6B7B3E"/>
<path d="M41.7232 15.7593C40.8217 16.3582 39.9648 16.6161 39.9648 16.6161L40.8143 18.3546L41.7232 15.7593Z" fill="#4B5B19"/>
<path d="M40.0955 16.2107C40.0955 16.2107 40.2245 17.5598 40.3745 17.9045L40.5258 18.248L39.1866 18.806C39.1866 18.806 39.0217 17.5896 39.0502 17.5796C39.0787 17.5685 40.0955 16.2119 40.0955 16.2119V16.2107Z" fill="#6B7B3E"/>
<path d="M40.0962 16.2107C39.1947 16.8096 38.3379 17.0675 38.3379 17.0675L39.1873 18.806L40.0962 16.2107Z" fill="#4B5B19"/>
<path d="M42.6177 19.1879C42.6177 19.1879 41.6343 20.1204 41.4558 20.4514L41.2785 20.7825L40.0137 20.072C40.0137 20.072 40.8693 19.1928 40.8953 19.2077C40.9213 19.2238 42.6164 19.1879 42.6164 19.1879H42.6177Z" fill="#6B7B3E"/>
<path d="M42.6184 19.1879C41.5917 18.8469 40.8613 18.3311 40.8613 18.3311L40.0156 20.072L42.6196 19.1879H42.6184Z" fill="#4B5B19"/>
<path d="M41.0152 17.8078C41.0152 17.8078 39.2656 18.2034 39.0077 17.8686C38.7485 17.5338 39.0077 16.8803 39.0077 16.8803C39.0077 16.8803 38.2017 17.3515 37.6846 17.2151C37.1675 17.0787 37.4254 16.3024 37.4254 16.3024L37.1663 16.5455C36.9071 16.7885 36.4818 17.0936 36.178 17.0167C35.8742 16.941 35.904 16.1189 35.904 16.1189C35.904 16.1189 35.6758 16.8344 34.8847 17.0464C34.0936 17.2597 33.9262 16.0123 33.9262 16.0123C33.9262 16.0123 33.7898 16.5604 33.6521 16.9857C33.5542 17.2907 33.3545 17.5238 33.1264 17.5995C33.233 17.4978 33.2814 17.4457 33.2516 17.4569C33.1933 17.4804 33.1127 17.5412 33.0148 17.623C32.959 17.628 32.9019 17.6243 32.8449 17.6094C32.5101 17.5176 32.0389 16.605 32.0389 16.605C32.0389 16.605 31.9099 18.4315 31.5106 18.6138C31.4424 18.6361 31.3742 18.656 31.3048 18.6721C30.3735 18.8742 29.5477 17.6491 29.5477 17.6491C29.5477 17.6491 29.8044 19.6269 29.1274 19.6951C28.4503 19.7633 27.317 19.1371 27.317 19.1371C27.317 19.1371 28.2222 20.9797 27.5364 21.2934C26.8507 21.6084 25.7112 21.2091 25.7112 21.2091C25.7112 21.2091 25.7781 21.2848 26.0621 21.9234C26.3113 22.4838 26.1886 22.9042 25.8302 23.2117C25.0093 23.3692 24.119 22.4962 24.119 22.4962C24.119 22.4962 24.7675 24.3823 24.119 24.5856C23.4705 24.789 22.233 24.4034 22.233 24.4034C22.233 24.4034 23.4903 26.0253 22.8815 26.4717C22.2726 26.9181 21.076 26.7556 21.076 26.7556C21.076 26.7556 21.1567 26.8164 21.5634 27.3843C21.7692 27.6732 21.8436 27.9398 21.8151 28.1866C21.7643 28.2672 21.7023 28.3528 21.6241 28.4383C21.2385 28.8636 20.3259 28.0936 20.3259 28.0936C20.3259 28.0936 20.8739 29.2703 20.6098 29.7924C20.3457 30.3144 19.0486 29.7924 19.0486 29.7924C19.0486 29.7924 19.9811 31.1353 19.7182 31.48C19.4541 31.8247 18.0554 32.1496 18.0752 32.2104C18.0951 32.2711 19.2719 32.9804 19.2719 32.9804L17.6499 33.5682L18.725 34.0344L16.6976 35.1294L18.0963 35.7171L16.3926 37.1158L18.0752 37.6428L17.366 38.5356L17.9537 38.7588C17.9537 38.7588 17.8582 42.2494 19.2619 43.3729C22.3793 45.8665 27.7944 45.7996 33.2008 40.2282C34.9244 38.4526 37.7553 34.5317 38.3319 33.6773C39.8608 31.4106 41.3302 27.8456 41.5956 26.6242C42.9025 20.6028 40.9966 19.0205 40.5862 18.8234C40.1758 18.6262 41.0115 17.8041 41.0115 17.8041L41.0152 17.8078Z" fill="#FFE6C1"/>
<path d="M29.3968 21.715C27.4165 23.2216 23.8577 27.3037 22.7727 29.1414C21.6877 30.9778 20.3373 32.999 20.0757 34.7759C19.8141 36.5529 19.9145 39.2511 19.6033 40.1228C19.292 40.9945 19.0713 43.1633 20.6399 43.6531C22.2085 44.1441 22.888 44.2694 26.4071 43.2042C29.925 42.1391 32.1744 40.6585 33.6599 38.6261C35.1454 36.595 35.686 35.0587 36.5764 33.6971C37.959 31.5854 41.0652 24.9427 40.5444 20.8644C40.2988 18.9436 37.5746 15.4902 29.3968 21.7125V21.715Z" fill="#F4C895"/>
<path d="M24.1804 28.8748C24.1804 28.8748 21.2243 33.1453 20.8647 34.4684C20.5051 35.7915 20.7394 37.9962 20.6501 38.9014C20.5609 39.8066 20.3823 40.816 20.2025 41.4074C20.0227 41.9989 20.2323 43.074 21.2391 43.1323C22.246 43.1906 24.2759 42.5371 25.9313 42.0039C27.5867 41.4719 30.0246 40.6982 30.74 40.1389C31.4555 39.5797 32.2243 38.4538 33.5176 36.8368C34.8097 35.2199 35.5847 33.7492 35.8935 33.376C37.2438 31.7429 38.8906 27.5244 38.8906 27.5244L25.6833 30.5252L24.1817 28.8748H24.1804Z" fill="#E77F40"/>
<path d="M20.83 41.7745C20.9081 42.1229 21.2194 42.3697 21.5765 42.3685C22.7954 42.3672 22.9467 41.8588 27.8794 40.4167C30.1784 39.7446 32.1053 37.654 32.9659 36.3755C33.8265 35.0959 36.4032 32.6791 38.2619 29.1029C40.1207 25.5268 40.365 21.5241 39.776 20.2853C39.3246 19.3355 35.9568 16.7463 31.189 20.8024C26.4212 24.8584 24.4235 28.0452 22.9455 30.6033C21.4674 33.1615 20.83 34.6346 21.1239 37.8338C21.4451 41.3269 20.6366 40.9201 20.8288 41.7745H20.83Z" fill="#FFCA00"/>
<path d="M35.4657 19.1867C34.9387 19.3218 34.4278 19.5388 33.9442 19.7868C31.9565 20.8024 30.2688 22.366 29.1218 24.2508C28.4051 25.4276 28.1336 26.6477 27.9476 27.9907C27.7851 29.1699 29.0722 30.0242 30.1399 30.1482C31.2025 30.2722 32.2429 29.7998 33.1493 29.2443C35.8984 27.5629 38.5533 24.8671 38.9612 21.591C39.0579 20.8123 38.9414 20.0708 38.273 19.5574C37.8167 19.2077 37.2289 19.0515 36.6499 19.0391C36.2481 19.0304 35.8513 19.0862 35.4644 19.1854L35.4657 19.1867Z" fill="#FFDF82"/>
<path d="M21.7453 33.9774C21.7106 34.0245 21.6809 34.0766 21.6573 34.1311C21.5221 34.4337 21.47 34.8169 21.4217 35.1442C21.3609 35.5522 21.3361 35.9651 21.3448 36.378C21.3733 37.8858 21.7304 39.1618 21.4874 39.9157C21.2444 40.6697 21.0609 41.4062 21.537 41.56C22.0119 41.7125 23.1441 41.0677 24.4485 40.6225C25.753 40.1774 27.8598 39.6405 28.8505 39.0539C29.8401 38.4674 31.4248 36.7413 32.0969 35.9229C32.7689 35.1045 33.9196 33.7542 34.4752 33.066C35.0307 32.379 34.2904 32.0368 31.9208 34.1361C29.5511 36.2354 27.5572 37.2596 25.7133 37.5882C24.8441 37.7432 23.955 37.4841 23.2743 36.9311C23.0052 36.7128 22.7634 36.4499 22.591 36.1474C22.3567 35.7369 22.3852 35.2831 22.3405 34.8206C22.3133 34.5366 22.2835 34.2527 22.2488 33.9699C22.2389 33.8893 22.2178 33.7939 22.1434 33.7629C22.0987 33.7443 22.0479 33.7554 22.0033 33.7728C21.9003 33.8137 21.8148 33.8881 21.7478 33.9786L21.7453 33.9774Z" fill="#FFB41A"/>
<path d="M23.5523 31.2395C23.4705 31.1241 23.3018 31.113 23.2051 31.2159C23.0687 31.361 22.9484 31.6325 23.1344 32.1149C23.4593 32.9556 24.5542 34.2093 25.0403 34.2117C25.5276 34.2142 25.3441 33.7827 24.8369 33.2979C24.3298 32.8143 23.9851 32.4075 23.8536 32.0529C23.7222 31.6983 23.6453 31.3709 23.5548 31.2419C23.5548 31.2407 23.5536 31.2395 23.5523 31.2382V31.2395Z" fill="#FFB41A"/>
<path d="M22.7696 32.8998C22.8167 33.1144 23.5111 34.3184 23.7666 34.5416C24.0233 34.7648 23.8435 34.7995 23.7058 34.7512C23.5682 34.7028 23.1069 34.0332 22.8564 33.4851C22.6059 32.937 22.4918 32.7399 22.5724 32.7126C22.653 32.6853 22.7696 32.8998 22.7696 32.8998Z" fill="#FFB41A"/>
<path d="M28.9525 34.2129C29.4188 34.8218 30.696 35.8274 31.4673 35.9738C32.2373 36.1201 33.4339 34.8689 32.9887 34.6432C32.5423 34.4175 31.3321 34.6779 30.5584 34.2129C29.7846 33.7479 29.2874 33.4851 29.0034 33.6264C28.7194 33.7678 28.8633 34.0964 28.9525 34.2129Z" fill="#FFB41A"/>
<path d="M25.9662 27.4289C25.9662 27.4289 24.7745 29.1575 24.4583 29.806C24.1421 30.4545 24.4869 31.8012 25.1602 32.3542C25.8335 32.9072 27.7294 33.1093 28.745 32.1769C29.7618 31.2444 28.9 30.6008 27.9452 29.7948C26.9904 28.9888 27.5224 27.1338 27.0847 26.8263C26.6469 26.5188 25.9649 27.4277 25.9649 27.4277L25.9662 27.4289Z" fill="#FFDF82"/>
</svg>
